<?xml version="1.0" standalone="no"?>
<!DOCTYPE svg PUBLIC "-//W3C//DTD SVG 20010904//EN"
 "http://www.w3.org/TR/2001/REC-SVG-20010904/DTD/svg10.dtd">
<svg version="1.0" xmlns="http://www.w3.org/2000/svg"
 width="1024.000000pt" height="1024.000000pt" viewBox="0 0 1024.000000 1024.000000"
 preserveAspectRatio="xMidYMid meet">
<metadata>
Created by potrace 1.14, written by Peter Selinger 2001-2017
</metadata>
<g transform="translate(0.000000,1024.000000) scale(0.100000,-0.100000)"
fill="#000000" stroke="none">
<path d="M4520 7470 c43 -8 42 -8 -17 -6 -34 0 -65 -3 -70 -7 -4 -5 -2 -7 6
-5 7 2 16 -3 18 -10 3 -8 -3 -11 -19 -8 -12 2 -22 8 -21 13 1 5 -9 9 -22 9
-13 0 -21 -4 -19 -8 3 -5 9 -6 14 -3 5 3 11 1 14 -4 3 -5 -7 -14 -24 -19 -18
-7 -32 -7 -35 -1 -4 5 1 9 10 9 9 0 13 5 10 10 -5 8 -11 8 -20 0 -10 -8 -14
-7 -18 2 -4 11 -6 10 -6 0 -1 -7 -5 -11 -10 -7 -5 3 -16 -2 -25 -11 -10 -10
-24 -13 -38 -9 -18 5 -20 4 -8 -4 13 -9 12 -11 -5 -12 -11 -1 -27 0 -35 1 -8
1 -4 -7 10 -19 14 -11 20 -20 13 -21 -6 0 -15 5 -18 10 -3 6 -12 10 -18 10 -7
0 -7 -4 2 -9 12 -8 9 -11 -12 -16 -20 -5 -25 -11 -17 -19 7 -9 5 -19 -6 -32
-14 -18 -15 -18 -4 4 10 20 8 22 -13 22 -16 0 -26 -7 -30 -19 -3 -15 -1 -18
11 -14 11 5 14 2 9 -10 -6 -15 -3 -16 13 -7 11 6 20 8 20 5 0 -3 11 2 25 11
14 9 23 20 20 24 -3 5 0 10 7 13 7 2 0 3 -17 1 -39 -6 -20 12 23 20 21 3 31 2
27 -4 -3 -6 -1 -10 4 -10 18 0 12 17 -11 34 -15 10 -17 14 -5 10 9 -4 17 -1
17 5 0 6 8 10 18 9 36 -3 52 3 52 18 0 8 5 12 10 9 6 -4 8 -10 5 -15 -3 -5 6
-7 19 -4 14 2 28 0 31 -6 3 -5 -1 -10 -9 -10 -9 0 -16 -3 -16 -7 0 -5 23 -8
52 -9 29 0 47 1 41 3 -7 3 -9 11 -6 19 6 16 -22 20 -32 4 -7 -12 -25 -4 -25
11 0 6 5 7 10 4 6 -3 10 -2 10 4 0 5 8 8 18 6 9 -2 23 -4 31 -4 7 -1 11 -7 8
-15 -9 -23 12 -35 45 -25 42 12 44 16 8 15 -16 -1 -30 -5 -30 -9 0 -5 -4 -6
-10 -2 -14 9 0 35 15 28 8 -2 20 -1 27 3 7 5 19 9 26 10 27 4 22 11 -8 12 -16
0 -30 -4 -30 -9 0 -5 -5 -9 -11 -9 -5 0 -7 6 -3 13 5 8 2 8 -9 -2 -15 -12 -17
-11 -17 3 0 12 10 16 44 16 24 0 52 3 60 6 12 4 15 2 10 -9 -6 -18 11 -31 28
-21 15 10 67 11 61 2 -2 -5 1 -8 6 -8 6 0 11 7 11 16 0 11 -9 14 -37 12 -21
-2 -39 2 -39 7 -1 6 2 9 7 8 5 -2 9 2 9 7 0 14 -13 13 -28 -2 -9 -9 -12 -9
-12 0 0 8 -19 12 -57 10 l-58 -1 45 -7z m-210 -44 c0 -2 -8 -10 -17 -17 -16
-13 -17 -12 -4 4 13 16 21 21 21 13z m130 -30 c0 -2 -7 -7 -16 -10 -8 -3 -12
-2 -9 4 6 10 25 14 25 6z m-241 -79 c-2 -1 -12 -9 -22 -16 -15 -12 -17 -12
-11 3 3 9 13 16 22 16 8 0 13 -1 11 -3z"/>
<path d="M4722 7446 c7 -8 15 -12 17 -11 5 6 -10 25 -20 25 -5 0 -4 -6 3 -14z"/>
<path d="M4704 7428 c6 -21 -8 -26 -72 -24 -55 2 -83 -6 -63 -18 6 -4 11 -1
11 6 0 10 3 9 9 -1 8 -12 12 -12 25 -2 9 8 16 9 16 3 0 -6 13 -7 38 0 56 14
76 15 84 3 5 -6 8 -5 8 3 0 7 5 10 10 7 6 -4 7 -12 4 -18 -4 -7 -3 -9 1 -4 5
4 14 -5 21 -20 11 -24 12 -25 10 -6 -1 13 -13 34 -25 47 -19 20 -28 23 -42 16
-13 -8 -21 -6 -29 7 -10 15 -11 16 -6 1z"/>
<path d="M4260 7373 c0 -5 5 -15 10 -23 8 -13 12 -12 27 4 10 10 13 16 6 12
-6 -3 -14 -2 -18 4 -7 12 -25 14 -25 3z"/>
<path d="M4326 7368 c3 -5 10 -6 15 -3 13 9 11 12 -6 12 -8 0 -12 -4 -9 -9z"/>
<path d="M4768 7347 c-3 -19 -2 -25 4 -19 6 6 8 18 6 28 -3 14 -5 12 -10 -9z"/>
<path d="M4744 7352 c3 -5 0 -13 -6 -15 -9 -4 -10 -6 -1 -6 17 -1 25 16 12 25
-7 4 -9 3 -5 -4z"/>
<path d="M5268 7342 c4 -12 1 -12 -16 -3 -16 8 -22 9 -22 1 0 -7 -9 -9 -22 -5
-18 5 -20 4 -8 -4 13 -9 12 -11 -3 -11 -11 0 -15 -4 -11 -12 4 -7 3 -8 -4 -4
-6 3 -16 -2 -21 -13 -19 -35 31 -37 72 -3 9 8 17 11 17 7 0 -4 8 -1 18 7 9 9
26 18 37 21 18 4 18 5 -2 6 -13 0 -23 5 -23 9 0 14 41 7 50 -8 5 -8 12 -11 16
-8 4 4 25 -4 48 -17 28 -16 51 -23 70 -19 17 3 25 1 21 -6 -3 -5 -2 -10 3 -10
5 0 13 -20 17 -45 3 -27 10 -43 16 -39 6 3 8 12 5 19 -3 8 0 16 7 19 7 2 3 5
-8 5 -16 1 -17 3 -5 11 12 8 11 12 -8 30 -22 21 -22 47 0 34 7 -4 8 -2 4 5 -4
6 -11 9 -16 6 -5 -3 -11 -1 -14 4 -3 5 -20 14 -38 20 -17 6 -29 8 -25 5 4 -4
2 -13 -4 -20 -8 -10 -17 -9 -45 6 -19 11 -36 20 -39 20 -3 0 -6 1 -7 1 -2 1
-17 2 -34 3 -24 2 -31 -1 -26 -12z m194 -30 c4 -12 -1 -18 -13 -19 -11 -1 -19
3 -19 8 0 6 -6 7 -12 3 -9 -5 -9 -2 1 9 18 22 37 22 43 -1z m-229 -7 c2 -12
-52 -39 -60 -31 -3 3 5 10 18 15 13 5 20 10 16 10 -5 1 -5 6 -2 12 8 12 26 8
28 -6z"/>
<path d="M5382 7351 c-11 -6 -10 -10 4 -15 20 -8 32 0 18 14 -5 5 -15 5 -22 1z"/>
<path d="M4772 7316 c-12 -6 -25 -19 -28 -28 -3 -11 -11 -15 -21 -11 -13 5
-15 3 -8 -13 5 -10 9 -29 9 -41 1 -13 2 -23 4 -23 3 0 25 52 26 63 1 4 8 12
16 18 12 9 12 10 -3 5 -11 -3 -16 -2 -12 4 3 6 12 10 20 10 7 0 15 7 19 15 3
8 4 14 3 14 -1 -1 -12 -6 -25 -13z"/>
<path d="M4057 7292 c-22 -24 -21 -38 0 -46 10 -4 24 1 36 13 19 19 19 19 -2
26 -12 3 -19 11 -16 16 10 15 -1 10 -18 -9z m24 -16 c5 3 9 1 9 -4 0 -14 -28
-23 -35 -12 -4 6 -3 15 1 22 6 9 9 9 12 0 2 -7 8 -10 13 -6z"/>
<path d="M5086 7303 c-3 -4 0 -13 7 -21 10 -13 9 -15 -6 -9 -10 4 -16 3 -12
-2 3 -5 0 -13 -6 -17 -8 -4 -7 -9 2 -15 9 -6 10 -9 2 -9 -6 0 -18 7 -27 15
-16 17 -27 20 -23 6 1 -5 -2 -8 -8 -7 -5 0 -9 5 -7 10 2 5 -3 4 -11 -2 -8 -7
-16 -10 -19 -7 -3 3 -11 -2 -19 -12 -9 -11 -10 -14 -1 -9 8 5 12 1 13 -11 0
-13 3 -12 11 7 6 15 12 20 15 12 3 -7 -1 -19 -7 -27 -8 -10 -9 -15 -2 -15 6 0
-3 -15 -21 -34 -18 -18 -36 -31 -41 -28 -5 3 -6 0 -1 -7 4 -7 -3 -23 -16 -39
l-24 -27 24 20 c32 28 129 141 111 130 -13 -8 -13 -7 -1 8 15 19 26 23 15 5
-5 -8 -2 -9 9 -5 10 4 17 1 17 -6 0 -7 5 -4 11 6 6 9 14 15 18 13 4 -3 17 3
27 13 11 9 26 15 34 13 12 -3 12 -2 3 8 -9 10 -16 9 -34 -4 -27 -18 -39 -20
-39 -6 0 6 7 10 16 10 10 0 14 6 11 14 -3 8 -1 16 6 19 6 2 5 6 -5 9 -9 4 -19
4 -22 1z"/>
<path d="M5135 7290 c-3 -5 -1 -10 4 -10 6 0 11 5 11 10 0 6 -2 10 -4 10 -3 0
-8 -4 -11 -10z"/>
<path d="M5531 7278 c18 -15 18 -73 0 -105 -6 -13 -8 -23 -4 -23 4 0 8 -10 9
-22 3 -65 20 -95 20 -38 0 22 -4 40 -10 40 -5 0 -1 7 10 15 16 13 16 14 2 9
-13 -4 -18 -1 -18 12 0 16 2 17 10 4 8 -12 10 -9 10 13 0 20 4 26 13 21 9 -6
9 -5 0 8 -7 8 -10 18 -6 21 3 4 1 7 -7 7 -9 0 -9 4 -2 13 11 13 -2 30 -28 35
-12 2 -12 0 1 -10z"/>
<path d="M4674 7233 c-10 -16 -17 -36 -16 -45 2 -10 -2 -18 -8 -18 -6 0 -8 5
-4 13 5 7 -1 6 -16 -4 -13 -8 -27 -26 -32 -40 -8 -22 -7 -22 18 6 14 17 23 22
20 13 -3 -10 -1 -20 5 -23 5 -4 7 -10 4 -15 -3 -5 0 -12 6 -16 7 -4 9 -3 6 3
-4 6 5 20 18 33 19 18 22 27 14 42 -12 22 -4 38 18 38 10 0 13 6 9 16 -3 9 -6
18 -6 20 0 13 -20 0 -36 -23z m16 -7 c0 -2 -8 -10 -17 -17 -16 -13 -17 -12 -4
4 13 16 21 21 21 13z m-14 -58 c-1 -13 -11 -25 -21 -26 -16 -4 -16 -2 1 22 23
31 25 32 20 4z"/>
<path d="M4002 7238 c-7 -7 -12 -15 -12 -19 0 -13 44 -18 57 -7 11 9 10 13 -4
24 -22 17 -26 17 -41 2z m30 -12 c7 4 8 2 4 -4 -4 -6 -13 -9 -21 -6 -8 4 -12
11 -8 17 5 8 8 7 11 -1 2 -7 9 -9 14 -6z"/>
<path d="M4937 7197 c-3 -8 4 -14 20 -15 22 -2 24 0 13 13 -15 18 -26 19 -33
2z"/>
<path d="M3936 7191 c-4 -5 -2 -12 4 -16 6 -4 8 -11 5 -16 -8 -12 6 -11 25 1
12 7 10 11 -10 19 -23 10 -23 11 7 7 18 -2 35 -1 37 3 3 4 -10 8 -29 9 -18 2
-36 -2 -39 -7z"/>
<path d="M5572 7172 c3 -12 2 -24 -3 -27 -4 -3 -4 -16 1 -29 5 -13 6 -26 3
-29 -3 -4 2 -13 11 -22 9 -9 16 -13 17 -8 0 4 2 19 5 32 3 19 1 22 -13 17 -10
-4 -14 -4 -10 0 4 4 2 13 -3 19 -8 9 -6 14 5 19 9 3 13 2 10 -3 -3 -5 -1 -12
4 -15 23 -14 18 14 -6 40 -24 26 -26 27 -21 6z"/>
<path d="M4914 7171 c3 -5 -1 -12 -10 -15 -8 -3 -12 -10 -9 -16 3 -5 -1 -10
-10 -10 -10 0 -13 5 -9 12 4 7 3 8 -4 4 -6 -4 -8 -14 -5 -24 6 -15 5 -16 -12
-2 -17 14 -18 14 -7 -6 6 -12 10 -23 9 -25 -1 -2 9 7 23 21 13 14 23 28 22 33
-2 7 14 11 32 8 5 -1 4 5 -4 13 -13 17 -25 22 -16 7z"/>
<path d="M3907 7163 c-4 -3 -7 -14 -7 -24 0 -10 -10 -19 -25 -23 -14 -4 -25
-13 -25 -21 0 -8 -4 -15 -10 -15 -5 0 -10 -5 -10 -11 0 -6 -8 -18 -18 -27 -9
-10 -13 -14 -8 -10 5 4 18 2 30 -4 19 -10 20 -10 7 5 -14 18 -12 19 27 19 20
0 20 1 2 5 -28 6 -25 21 3 18 14 -2 24 2 24 11 0 10 -5 10 -20 2 -15 -8 -18
-7 -15 4 5 15 28 18 45 5 9 -6 11 -3 8 13 -3 16 0 20 10 16 17 -6 30 10 15 19
-6 4 -8 11 -5 16 7 10 -18 13 -28 2z"/>
<path d="M4615 7119 c-4 -6 -5 -12 -2 -15 2 -3 7 2 10 11 7 17 1 20 -8 4z"/>
<path d="M4823 7104 c4 -4 -2 -19 -13 -34 -22 -32 -25 -40 -10 -40 6 0 10 6
10 14 0 7 7 19 15 26 18 15 20 40 3 40 -6 0 -8 -3 -5 -6z"/>
<path d="M5090 7090 c13 -9 13 -10 0 -11 -8 -1 -18 -1 -22 0 -4 0 -5 -6 -2
-14 4 -8 10 -12 15 -9 20 12 135 20 169 11 101 -25 125 -43 151 -110 15 -39
39 -62 39 -37 0 6 -5 8 -11 4 -7 -4 -9 0 -5 13 4 13 0 25 -9 33 -8 7 -13 20
-10 29 3 12 -6 23 -33 36 -20 11 -43 26 -50 33 -26 24 -48 29 -147 30 -70 2
-95 -1 -85 -8z m190 -4 c0 -2 -7 -7 -16 -10 -8 -3 -12 -2 -9 4 6 10 25 14 25
6z"/>
<path d="M4585 7080 c-2 -3 5 -6 15 -7 11 -1 22 2 24 5 3 4 -4 8 -15 8 -11 0
-22 -3 -24 -6z"/>
<path d="M4515 7060 c-10 -11 -14 -20 -10 -20 4 0 0 -9 -10 -20 -10 -11 -21
-17 -25 -15 -12 8 -40 -42 -34 -59 3 -9 10 -16 15 -16 5 0 8 -5 7 -11 -2 -6 7
-12 19 -14 12 -1 20 3 16 8 -3 5 5 7 18 5 12 -1 24 -10 26 -18 4 -13 3 -13 -6
0 -5 8 -13 11 -18 7 -9 -9 17 -28 32 -23 6 1 15 -4 22 -13 10 -13 12 -11 8 17
-2 18 0 30 6 27 5 -4 9 -4 9 0 0 13 -51 23 -79 15 -19 -5 -33 -5 -37 1 -3 5
-2 9 3 8 4 -1 15 -1 23 0 13 1 13 2 0 11 -9 6 -19 5 -28 -2 -10 -9 -16 -8 -22
2 -6 10 3 22 30 42 21 16 40 39 42 51 2 12 9 21 16 19 8 -1 11 2 7 8 -8 13 -9
13 -30 -10z"/>
<path d="M4565 7040 c-24 -27 -4 -32 28 -6 23 19 25 22 8 23 -11 1 -27 -7 -36
-17z m25 6 c0 -2 -8 -10 -17 -17 -16 -13 -17 -12 -4 4 13 16 21 21 21 13z"/>
<path d="M5570 7035 c-2 -16 -3 -37 -4 -45 -1 -8 -6 -14 -11 -12 -12 2 -14 23
-4 37 4 6 1 15 -6 22 -10 9 -13 2 -13 -34 -1 -40 1 -45 18 -40 11 3 20 1 20
-4 0 -9 -15 -13 -33 -10 -5 1 -7 -4 -5 -11 3 -7 -1 -33 -9 -57 -16 -53 -16
-64 -3 -56 6 4 8 10 5 15 -3 5 -1 11 4 15 6 3 9 -10 8 -32 -2 -21 -9 -39 -17
-41 -13 -5 -13 -3 -1 11 12 15 11 17 -3 17 -11 0 -16 -7 -14 -17 1 -10 -1 -24
-6 -32 -7 -10 -6 -12 4 -6 10 6 12 4 7 -8 -3 -9 1 -24 11 -33 15 -16 17 -16
23 7 3 13 4 34 2 47 -2 12 1 22 7 22 10 0 7 40 -6 83 -4 11 0 17 11 17 9 0 14
-4 10 -9 -3 -5 -1 -12 4 -15 19 -12 23 16 5 35 -14 15 -15 22 -5 32 10 9 11 8
6 -5 -5 -13 -2 -18 11 -18 11 0 15 4 9 8 -15 11 -18 52 -4 52 7 0 4 7 -7 15
-18 14 -18 16 -1 29 17 14 24 32 8 21 -5 -3 -12 3 -14 12 -3 11 -6 7 -7 -12z
m-33 -271 c-3 -3 -12 -4 -19 -1 -8 3 -5 6 6 6 11 1 17 -2 13 -5z"/>
<path d="M4771 7040 c4 -18 -36 -62 -47 -52 -4 4 -4 2 -1 -4 11 -19 56 -23 69
-6 8 10 9 13 2 9 -7 -4 -15 0 -18 9 -4 12 -2 15 9 10 13 -5 14 -2 4 17 -15 29
-22 35 -18 17z m-1 -55 c11 -13 10 -14 -4 -9 -9 3 -16 10 -16 15 0 13 6 11 20
-6z"/>
<path d="M4822 6980 c-30 -33 -57 -58 -61 -56 -4 3 -13 1 -21 -5 -11 -6 -12
-9 -2 -9 7 0 10 -5 7 -10 -4 -6 -10 -8 -14 -5 -5 2 -8 -3 -8 -13 0 -35 -3 -42
-19 -42 -14 0 -14 -3 -4 -15 11 -13 10 -14 -3 -10 -8 4 -18 1 -23 -6 -5 -8 -3
-10 7 -5 8 4 6 1 -4 -7 -10 -9 -14 -18 -8 -21 5 -3 17 1 25 10 22 21 49 74 42
81 -3 3 22 34 55 69 55 56 95 104 87 104 -2 0 -27 -27 -56 -60z"/>
<path d="M3792 7001 c-7 -4 -34 -7 -60 -6 l-47 3 40 -8 c36 -7 33 -8 -25 -8
-64 0 -119 -8 -130 -19 -3 -2 10 -3 28 0 17 3 32 1 32 -4 0 -6 5 -7 10 -4 6 4
8 11 5 16 -4 5 -2 9 3 9 5 0 12 -10 14 -23 3 -18 0 -23 -14 -22 -9 1 -20 4
-24 7 -3 4 -12 4 -19 2 -7 -3 -24 0 -37 6 -19 10 -21 10 -10 -1 16 -17 15 -26
-2 -26 -8 0 -14 5 -13 11 1 5 -7 11 -18 13 -15 3 -17 2 -6 -5 8 -6 10 -12 3
-16 -6 -4 -15 2 -21 11 -10 17 -10 17 -11 1 0 -10 6 -18 13 -18 9 0 8 -3 -2
-9 -9 -6 -4 -8 18 -7 17 0 31 3 31 7 0 3 6 6 13 6 6 0 21 4 31 9 12 4 17 4 13
-2 -3 -6 3 -11 14 -11 10 -1 19 3 19 9 0 7 5 6 14 -1 9 -8 16 -8 20 -2 4 6 13
8 20 5 8 -3 17 -1 20 4 3 5 20 8 38 6 18 -2 28 0 22 4 -6 4 -11 15 -11 26 0
17 1 17 12 2 14 -18 35 -22 35 -5 0 5 -5 7 -12 3 -7 -4 -8 -3 -4 4 5 9 13 9
27 2 23 -13 25 -30 2 -30 -9 0 -14 -3 -11 -6 4 -3 22 -1 42 4 23 7 36 7 36 1
0 -6 7 -6 18 0 10 5 44 11 75 12 31 1 55 5 52 7 -3 3 3 10 12 17 13 9 13 14 3
20 -9 5 -11 4 -6 -3 4 -7 3 -12 -2 -12 -6 0 -12 6 -15 14 -6 15 -51 15 -65 1
-4 -4 3 -4 16 -1 15 5 24 3 28 -8 3 -9 11 -13 17 -9 5 3 7 1 4 -5 -7 -11 -32
-11 -43 1 -12 11 -26 8 -18 -4 5 -8 1 -8 -13 0 -14 7 -23 7 -31 -1 -13 -13
-52 -19 -66 -10 -4 2 -2 8 5 13 11 7 10 9 -3 10 -10 1 -22 3 -28 4 -5 1 -15 3
-21 4 -5 0 -7 6 -4 11 7 12 4 12 -13 1z m-44 -45 c-8 -8 -15 -10 -17 -4 -2 6
-7 4 -12 -3 -7 -12 -9 -11 -9 1 0 12 -2 13 -9 1 -5 -7 -14 -10 -20 -7 -24 15
-9 26 34 26 39 0 44 -2 33 -14z"/>
<path d="M3828 7003 c6 -2 18 -2 25 0 6 3 1 5 -13 5 -14 0 -19 -2 -12 -5z"/>
<path d="M3880 6990 c0 -14 5 -18 17 -13 12 5 14 3 8 -7 -5 -9 -4 -11 4 -6 6
4 9 12 6 17 -4 5 1 9 9 9 8 0 18 5 21 10 7 12 -23 9 -44 -4 -10 -6 -12 -5 -7
2 4 7 2 12 -3 12 -6 0 -11 -9 -11 -20z"/>
<path d="M4525 6991 c-3 -5 0 -13 6 -17 7 -4 9 -3 5 4 -3 5 0 13 6 15 9 4 10
6 1 6 -6 1 -14 -3 -18 -8z"/>
<path d="M4076 6978 c3 -5 0 -8 -6 -8 -17 0 -6 -25 11 -26 8 0 23 7 33 15 11
9 17 12 14 6 -3 -5 1 -17 10 -25 9 -8 17 -13 17 -11 0 2 11 1 24 -4 16 -5 26
-3 32 6 6 10 9 11 9 2 0 -9 21 -13 73 -13 46 0 67 4 58 9 -8 5 -38 8 -67 8
-30 -1 -56 3 -58 8 -2 6 16 9 48 6 28 -1 47 1 43 5 -10 11 -117 13 -111 2 3
-4 0 -8 -6 -8 -6 0 -8 -5 -4 -12 5 -8 0 -7 -11 2 -10 8 -20 14 -22 13 -8 -7
-23 -2 -23 7 0 5 8 7 18 3 11 -4 14 -3 7 5 -12 12 -96 21 -89 10z m18 -16 c3
-5 -1 -9 -9 -9 -8 0 -12 4 -9 9 3 4 7 8 9 8 2 0 6 -4 9 -8z"/>
<path d="M4327 6963 c5 -12 7 -12 14 -1 7 10 9 10 9 1 0 -7 6 -12 13 -10 6 1
11 -4 9 -12 -3 -12 -1 -12 13 -1 14 12 18 11 26 -1 5 -8 9 -17 9 -21 0 -11 20
-10 20 0 0 5 -10 19 -21 31 -16 17 -24 20 -29 11 -6 -10 -8 -10 -12 0 -2 7
-16 14 -30 15 -20 2 -25 -1 -21 -12z"/>
<path d="M4694 6945 c-3 -8 -3 -19 1 -25 3 -5 -1 -10 -10 -10 -10 0 -13 5 -9
12 5 7 3 8 -7 2 -22 -13 -43 -14 -51 -1 -5 8 -12 6 -22 -8 -9 -11 -16 -23 -16
-27 0 -12 25 -9 39 5 8 6 12 8 9 2 -3 -5 3 -18 14 -27 21 -20 23 -16 7 14 -7
12 -7 18 -1 14 6 -3 12 -3 15 1 2 5 2 2 1 -4 -2 -7 1 -13 5 -13 5 0 7 -9 4
-20 -3 -11 -14 -20 -24 -20 -12 0 -19 -7 -19 -20 0 -14 5 -18 16 -13 13 5 13
7 2 14 -10 7 -9 9 4 9 11 0 25 17 38 44 11 24 31 53 44 64 l25 19 -30 1 c-17
0 -32 -5 -35 -13z m30 -2 c-5 -5 -12 -12 -16 -18 -4 -6 -8 -2 -8 8 0 9 7 17
17 17 9 0 12 -3 7 -7z"/>
<path d="M4110 6940 c0 -5 5 -10 11 -10 5 0 7 5 4 10 -3 6 -8 10 -11 10 -2 0
-4 -4 -4 -10z"/>
<path d="M5130 6939 c0 -6 -5 -7 -11 -4 -13 9 -51 -24 -42 -38 3 -6 1 -7 -5
-3 -16 9 -34 -2 -67 -41 -26 -32 -26 -33 -6 -33 12 0 47 25 82 59 51 50 66 59
94 58 18 -1 33 -6 32 -12 -1 -5 13 -17 30 -25 18 -8 33 -19 33 -23 0 -5 -4 -5
-10 -2 -15 9 -12 -7 6 -44 11 -22 14 -43 9 -64 -4 -18 -8 -48 -8 -69 -1 -20
-6 -34 -11 -30 -5 3 -6 -2 -3 -12 4 -10 7 -20 7 -23 0 -3 11 11 25 31 14 20
25 42 24 49 0 7 -5 1 -10 -12 -12 -31 -22 -21 -13 13 3 14 10 23 16 20 5 -3 8
0 7 7 -1 8 1 22 6 32 4 9 3 23 -3 30 -5 6 -15 31 -21 54 -16 58 -57 90 -115
91 -25 1 -46 -3 -46 -9z m114 -17 c3 -5 -1 -9 -9 -9 -8 0 -15 4 -15 9 0 4 4 8
9 8 6 0 12 -4 15 -8z m-214 -77 c-7 -8 -17 -15 -23 -15 -6 0 -2 7 9 15 25 19
30 19 14 0z m267 -67 c-3 -7 -5 -2 -5 12 0 14 2 19 5 13 2 -7 2 -19 0 -25z"/>
<path d="M3440 6930 c-8 -5 -18 -6 -22 -4 -5 3 -11 -2 -14 -10 -3 -9 -10 -13
-15 -10 -5 3 -9 0 -9 -6 0 -8 7 -9 18 -5 9 4 28 9 42 11 22 4 23 3 5 -5 -11
-5 -15 -10 -8 -10 21 -2 43 11 43 24 0 17 -23 25 -40 15z"/>
<path d="M4385 6920 c-3 -5 1 -10 9 -10 9 0 16 5 16 10 0 6 -4 10 -9 10 -6 0
-13 -4 -16 -10z"/>
<path d="M3305 6891 c3 -6 -4 -15 -15 -21 -23 -12 -27 -32 -5 -24 8 4 15 1 15
-4 0 -6 -9 -9 -20 -7 -11 2 -20 0 -20 -6 0 -14 36 -11 49 4 8 10 7 17 -2 26
-9 10 -8 11 6 6 9 -4 17 -5 17 -2 0 14 -13 37 -22 37 -5 0 -7 -4 -3 -9z"/>
<path d="M3335 6891 c-3 -5 -1 -13 5 -16 8 -5 7 -11 -1 -21 -8 -10 -8 -14 0
-14 6 0 11 5 11 11 0 5 6 7 13 3 10 -6 10 -4 0 7 -19 20 -16 33 3 14 20 -20
32 -11 14 10 -14 17 -36 20 -45 6z"/>
<path d="M3405 6880 c3 -5 8 -10 11 -10 2 0 4 5 4 10 0 6 -5 10 -11 10 -5 0
-7 -4 -4 -10z"/>
<path d="M4601 6870 c-9 -5 -7 -9 8 -13 12 -3 23 -2 26 3 7 11 -19 20 -34 10z"/>
<path d="M3225 6860 c6 -10 4 -12 -8 -7 -9 3 -19 1 -23 -5 -4 -7 -3 -8 4 -4 7
4 12 3 12 -3 0 -5 -8 -12 -17 -14 -17 -4 -17 -5 0 -6 9 0 17 -6 17 -12 0 -5 5
-7 10 -4 6 4 8 11 5 16 -4 5 -1 9 4 9 6 0 11 -6 12 -12 0 -7 5 -2 10 11 5 13
7 26 4 29 -3 3 -5 0 -5 -6 0 -7 -5 -12 -11 -12 -5 0 -8 4 -4 9 3 5 0 13 -6 17
-8 5 -9 3 -4 -6z"/>
<path d="M3155 6808 c11 -6 23 -15 26 -20 3 -6 9 -2 12 7 4 9 3 13 -2 10 -5
-3 -12 -1 -16 5 -3 5 -14 10 -23 10 -14 -1 -14 -2 3 -12z"/>
<path d="M3120 6801 c0 -5 6 -12 13 -15 6 -2 1 -4 -13 -3 -31 3 -38 -24 -10
-41 17 -10 20 -10 20 3 0 8 -8 15 -17 16 -12 0 -13 2 -5 6 7 3 20 -1 29 -9 14
-11 16 -11 8 1 -6 11 -4 13 8 8 18 -7 22 1 9 19 -10 14 -42 26 -42 15z"/>
<path d="M3363 6788 c-29 -31 -29 -71 -1 -103 44 -50 138 -15 138 53 0 43 -21
63 -73 69 -35 4 -46 1 -64 -19z"/>
<path d="M4978 6803 c10 -4 9 -9 -4 -24 -9 -10 -22 -16 -28 -12 -6 4 -4 -1 4
-11 13 -17 15 -17 37 8 29 34 29 46 1 45 -13 0 -17 -3 -10 -6z"/>
<path d="M4608 6783 c6 -2 9 -10 6 -15 -4 -7 -2 -8 4 -4 18 11 14 26 -5 25
-11 0 -13 -3 -5 -6z"/>
<path d="M3062 6767 c-7 -8 -9 -16 -6 -20 3 -3 -8 -13 -25 -22 -32 -16 -43
-29 -16 -19 8 4 22 1 29 -5 10 -8 16 -9 21 -1 3 6 12 7 18 3 7 -4 19 -9 28
-10 27 -4 -1 46 -29 54 -18 4 -20 8 -11 14 7 4 11 11 8 14 -4 3 -11 -1 -17 -8z
m32 -44 c4 -11 1 -11 -14 -3 -15 8 -20 8 -20 -1 0 -7 -3 -10 -6 -6 -9 9 3 24
20 24 8 0 17 -6 20 -14z"/>
<path d="M4653 6759 c-4 -4 -21 -10 -37 -13 -16 -3 -34 -10 -40 -16 -8 -8 -6
-9 7 -4 13 5 16 2 11 -10 -8 -22 16 -17 34 7 18 24 31 21 24 -5 -7 -30 -34
-51 -44 -35 -6 9 -8 9 -8 0 0 -37 56 -3 62 37 2 14 9 30 17 36 11 9 11 11 -2
11 -9 0 -20 -4 -24 -8z"/>
<path d="M5556 6709 c6 -10 -8 -13 -41 -9 -18 2 -17 0 5 -18 l25 -21 -25 5
c-21 5 -22 4 -7 -6 9 -6 17 -16 17 -22 0 -6 -7 -5 -17 3 -17 13 -17 13 -3 -5
14 -18 13 -19 -4 -13 -16 6 -17 5 -7 -7 10 -11 8 -17 -6 -26 -16 -10 -16 -11
0 -6 9 3 17 2 17 -3 0 -11 -30 -36 -30 -25 0 5 -4 3 -9 -5 -6 -9 -5 -24 0 -39
8 -21 7 -23 -5 -13 -11 9 -15 8 -19 -3 -3 -8 -3 -17 0 -20 9 -9 44 14 38 25
-4 5 -1 9 4 9 6 0 11 5 11 11 0 5 -4 7 -10 4 -17 -11 -11 4 11 26 11 11 18 27
15 35 -3 8 -2 14 3 14 9 0 32 70 26 81 -6 9 24 21 36 13 5 -3 9 -1 9 4 0 5 -9
12 -20 15 -11 3 -18 1 -14 -4z"/>
<path d="M5977 6713 c-11 -17 13 -28 26 -13 9 10 9 11 0 6 -6 -3 -13 -1 -15 6
-3 9 -6 9 -11 1z"/>
<path d="M2976 6698 c5 -8 1 -9 -12 -5 -17 6 -18 6 -2 -6 17 -14 19 -32 4 -55
-7 -11 -4 -12 11 -3 14 7 23 7 31 -1 9 -9 12 -9 12 1 0 7 4 10 9 7 5 -3 14 1
20 8 8 10 9 16 1 21 -6 3 -8 10 -5 15 7 12 -16 25 -24 14 -10 -15 -40 -13 -34
2 3 8 0 14 -7 14 -6 0 -8 -5 -4 -12z m34 -41 c0 13 24 12 28 -2 3 -10 -24 -16
-44 -8 -8 3 -11 10 -8 15 4 6 10 5 15 -3 6 -9 9 -10 9 -2z"/>
<path d="M5610 6700 c-8 -5 -10 -10 -5 -10 6 0 17 5 25 10 8 5 11 10 5 10 -5
0 -17 -5 -25 -10z"/>
<path d="M5650 6701 c0 -5 5 -13 10 -16 6 -3 10 -2 10 4 0 5 -4 13 -10 16 -5
3 -10 2 -10 -4z"/>
<path d="M5751 6689 c-7 -12 -16 -18 -20 -13 -9 13 -48 17 -55 5 -4 -6 -14 -7
-23 -4 -11 4 -14 3 -9 -5 7 -12 -12 -17 -44 -12 -8 1 -12 -1 -8 -5 3 -3 14 -8
23 -9 9 -1 21 -9 26 -17 8 -11 9 -10 7 5 -2 10 3 21 11 24 10 3 11 0 5 -9 -7
-12 -5 -12 9 0 9 7 14 17 11 22 -3 5 2 9 12 9 14 0 15 -3 3 -17 -7 -10 -20
-24 -29 -32 -13 -12 -13 -13 3 -7 10 3 34 6 53 6 19 0 34 4 34 8 0 4 -10 8
-22 8 -13 -1 -23 4 -23 9 0 6 8 9 18 8 9 -2 17 2 17 8 0 8 4 8 13 0 9 -7 17
-7 24 0 7 7 15 5 27 -6 9 -9 16 -12 16 -6 0 7 10 9 24 5 13 -3 27 -1 30 5 9
14 27 14 24 0 -2 -6 4 -14 12 -16 13 -4 13 -3 0 6 -12 9 -13 11 -1 11 8 0 11
3 7 7 -11 12 -96 10 -96 -1 0 -6 -4 -5 -9 2 -4 8 -12 14 -17 15 -5 1 -8 5 -6
10 1 4 -3 7 -9 7 -6 0 -9 -7 -5 -15 3 -9 0 -15 -9 -15 -9 0 -12 6 -9 15 9 22
1 18 -15 -6z"/>
<path d="M6034 6693 c-19 -15 -19 -15 2 -11 12 3 21 0 21 -7 0 -7 -9 -11 -21
-8 -20 3 -20 3 -1 -5 18 -8 17 -9 -6 -14 -22 -4 -25 -1 -21 14 2 10 -1 18 -7
18 -7 0 -11 -8 -9 -17 2 -10 -2 -17 -9 -16 -7 2 -10 -3 -7 -11 4 -11 11 -12
35 -3 23 9 34 9 52 -2 12 -8 19 -10 15 -6 -4 5 -3 14 2 20 8 9 5 15 -7 19 -16
7 -16 9 4 24 l23 17 -23 1 c-13 1 -32 -5 -43 -13z"/>
<path d="M6154 6703 c5 -9 0 -13 -13 -14 -12 -1 -25 -3 -31 -4 -5 -1 -15 -3
-22 -4 -16 -2 -4 -11 20 -16 12 -2 24 0 27 6 8 12 25 12 25 -2 0 -5 -5 -7 -11
-3 -8 4 -9 -1 -4 -17 5 -18 4 -20 -4 -9 -5 8 -13 11 -18 7 -12 -12 20 -27 33
-16 8 7 14 6 17 -3 4 -10 9 -8 20 5 10 12 17 14 22 8 3 -6 30 -12 58 -13 l52
-1 -50 -7 -50 -7 55 -1 c36 -1 63 3 78 14 23 16 29 34 11 34 -5 0 -7 -4 -4
-10 11 -17 -7 -11 -21 8 -13 15 -13 15 -8 0 5 -14 0 -17 -28 -15 -18 1 -39 6
-46 11 -7 4 -20 2 -29 -6 -10 -7 -14 -8 -10 -1 9 15 -3 44 -15 37 -6 -4 -5
-10 3 -15 12 -7 12 -9 0 -9 -7 0 -25 12 -39 28 -13 15 -21 21 -18 15z m36 -68
c0 -5 -5 -3 -10 5 -5 8 -10 20 -10 25 0 6 5 3 10 -5 5 -8 10 -19 10 -25z"/>
<path d="M3065 6681 c-3 -5 -1 -12 5 -16 5 -3 10 -2 10 4 0 5 10 8 21 6 12 -3
19 -1 15 2 -11 11 -45 13 -51 4z"/>
<path d="M4570 6664 c-13 -32 -13 -31 6 -38 13 -5 15 -2 11 14 -5 18 -3 19 11
8 15 -11 14 -10 -1 8 -9 11 -14 24 -10 27 3 4 3 7 -1 7 -3 0 -11 -12 -16 -26z"/>
<path d="M5940 6676 c0 -2 9 -6 20 -9 11 -3 18 -1 14 4 -5 9 -34 13 -34 5z"/>
<path d="M6260 6670 c34 -11 60 -11 35 0 -11 5 -29 8 -40 8 -16 0 -15 -2 5 -8z"/>
<path d="M2895 6650 c-3 -11 -10 -18 -15 -15 -5 3 -12 1 -15 -5 -4 -6 -1 -9 6
-8 6 2 14 -3 17 -11 3 -10 0 -12 -12 -8 -9 4 -15 2 -13 -5 1 -7 -5 -13 -13
-14 -36 -3 -40 -5 -40 -15 0 -8 4 -8 13 -1 9 8 12 3 11 -24 -1 -19 2 -31 7
-28 5 3 7 10 3 15 -10 17 17 41 31 29 9 -8 15 -8 20 0 3 6 11 8 16 5 5 -3 6 1
2 11 -5 13 -2 15 14 10 12 -4 25 -1 33 9 10 12 10 15 0 15 -8 0 -11 9 -8 25 3
14 1 25 -3 25 -5 0 -9 -3 -10 -7 0 -5 -2 -16 -4 -25 -2 -10 1 -18 6 -18 5 0 9
-5 9 -11 0 -8 -5 -8 -15 1 -8 7 -12 17 -8 24 4 6 0 5 -9 -2 -9 -7 -19 -9 -21
-5 -6 10 7 35 17 34 10 -2 8 13 -2 17 -6 2 -13 -6 -17 -18z m0 -67 c-2 -10 -4
-20 -4 -22 -1 -3 -7 1 -13 7 -10 10 -10 15 2 22 19 12 19 13 15 -7z"/>
<path d="M5790 6649 c0 -5 -5 -7 -12 -3 -6 4 -8 3 -5 -3 10 -15 76 -21 81 -8
2 7 -7 10 -26 7 -21 -3 -29 -1 -24 7 4 6 2 11 -3 11 -6 0 -11 -5 -11 -11z"/>
<path d="M5866 6635 c-3 -8 4 -12 20 -11 13 0 23 5 21 10 -5 15 -35 15 -41 1z"/>
<path d="M5936 6637 c-16 -12 -16 -13 3 -13 12 0 21 6 21 13 0 7 -1 13 -3 13
-2 0 -11 -6 -21 -13z"/>
<path d="M6379 6624 l-21 -23 21 6 c11 3 18 10 14 16 -4 6 -1 7 7 2 7 -4 16
-2 22 6 7 11 8 9 4 -5 -5 -13 -2 -17 9 -12 15 5 22 -9 8 -17 -5 -2 -3 -2 4 -1
7 2 15 -1 18 -6 7 -11 55 -9 55 2 0 4 -6 8 -12 8 -9 0 -8 3 2 9 19 13 29 5 23
-18 -6 -24 25 -37 44 -18 12 12 12 16 -1 26 -13 11 -15 10 -11 -8 2 -12 0 -21
-6 -21 -9 0 -11 8 -12 45 0 13 -7 21 -18 21 -10 0 -16 -3 -13 -7 9 -15 -26
-17 -41 -3 -8 9 -15 12 -15 8 0 -3 -6 -2 -12 3 -21 16 -46 11 -69 -13z m111
-25 c0 -4 -7 -6 -15 -3 -8 4 -15 10 -15 15 0 4 7 6 15 3 8 -4 15 -10 15 -15z"/>
<path d="M4605 6609 c10 -33 21 -43 30 -28 6 8 4 10 -5 4 -9 -6 -12 -4 -8 6 3
8 -1 20 -9 28 -13 12 -14 11 -8 -10z"/>
<path d="M4555 6610 c-3 -5 -1 -10 5 -10 6 0 8 -5 4 -12 -4 -7 -3 -8 4 -4 6 4
9 13 5 21 -6 18 -10 19 -18 5z"/>
<path d="M6396 6602 c-3 -5 1 -9 9 -9 8 0 15 4 15 9 0 4 -4 8 -9 8 -6 0 -12
-4 -15 -8z"/>
<path d="M6600 6584 c-12 -32 -12 -30 3 -32 22 -2 42 -7 55 -16 7 -4 16 -5 19
-2 3 3 -2 8 -11 12 -9 3 -16 11 -16 17 0 6 12 -1 28 -15 21 -21 36 -26 67 -25
35 1 40 -1 37 -18 -3 -15 -1 -17 8 -8 15 14 43 6 33 -10 -3 -5 -1 -7 5 -3 6 3
13 2 17 -4 3 -5 14 -10 23 -10 9 0 30 -7 47 -16 16 -8 26 -12 22 -8 -4 4 0 15
9 25 15 17 15 18 -5 14 -21 -4 -55 20 -47 34 3 4 -20 6 -49 6 -45 -1 -52 1
-43 12 15 18 2 29 -17 13 -14 -11 -19 -7 -16 13 2 14 -16 7 -34 -13 -20 -22
-35 -26 -35 -10 0 6 5 9 11 8 6 -2 14 3 17 11 3 10 -2 12 -22 7 -14 -3 -26 -3
-26 2 0 4 12 9 27 10 14 1 29 5 32 8 3 4 -6 4 -21 2 -16 -3 -28 -1 -28 5 0 5
-6 5 -14 -2 -10 -9 -15 -8 -20 4 -9 25 -45 18 -56 -11z m48 -1 c-2 -10 -12
-19 -23 -21 -20 -3 -20 -3 0 14 16 14 17 16 3 11 -10 -4 -18 -2 -18 3 0 6 9
10 21 10 14 0 19 -5 17 -17z m227 -73 c13 -6 15 -9 5 -9 -8 0 -22 4 -30 9 -18
12 -2 12 25 0z m25 -31 c10 -6 5 -7 -15 -3 -16 4 -34 11 -40 16 -11 12 31 1
55 -13z"/>
<path d="M2776 6588 c3 -4 11 -5 19 -1 21 7 19 12 -4 10 -11 0 -18 -5 -15 -9z"/>
<path d="M2725 6570 c-3 -5 -1 -10 4 -10 6 0 11 5 11 10 0 6 -2 10 -4 10 -3 0
-8 -4 -11 -10z"/>
<path d="M4565 6560 c3 -5 8 -10 11 -10 2 0 4 5 4 10 0 6 -5 10 -11 10 -5 0
-7 -4 -4 -10z"/>
<path d="M4593 6543 c1 -25 4 -30 14 -21 7 5 11 14 8 18 -3 5 -2 10 2 13 5 2
3 2 -4 1 -6 -2 -14 2 -17 9 -3 7 -4 -2 -3 -20z"/>
<path d="M2690 6545 c-7 -8 -16 -12 -21 -9 -5 3 -9 0 -9 -6 0 -6 -5 -8 -12 -4
-8 5 -9 2 -4 -12 5 -10 9 -25 9 -31 0 -7 9 -13 19 -13 18 0 18 1 4 16 -21 20
-21 38 0 30 9 -3 21 -6 27 -6 8 0 7 -3 -1 -9 -11 -7 -11 -9 2 -14 9 -4 15 -1
13 6 -1 7 3 11 10 10 7 -2 10 3 8 10 -3 8 5 12 25 13 16 1 27 -2 25 -7 -3 -4
4 -5 16 -2 16 4 17 8 7 14 -10 7 -10 9 2 10 10 0 7 4 -7 11 -17 8 -31 6 -63
-11 -47 -24 -67 -27 -48 -7 7 8 17 11 22 8 5 -3 6 0 2 6 -9 15 -11 15 -26 -3z
m90 -5 c-8 -5 -22 -9 -30 -9 -10 0 -8 3 5 9 27 12 43 12 25 0z"/>
<path d="M2609 6512 c-10 -2 -19 -13 -22 -25 -6 -20 -5 -20 7 -4 15 19 31 24
20 5 -4 -6 -3 -8 4 -4 5 3 12 1 14 -6 3 -7 7 -8 10 -2 9 14 -15 40 -33 36z"/>
<path d="M2555 6498 c-11 -6 -23 -16 -27 -22 -4 -6 -8 -7 -8 -2 0 5 -8 2 -17
-5 -14 -12 -16 -12 -8 0 6 11 2 13 -23 8 -22 -5 -32 -3 -32 6 0 8 -3 8 -8 2
-4 -6 -16 -11 -27 -10 -11 0 -20 -7 -20 -15 0 -15 37 -16 43 0 2 4 21 4 44 -2
23 -5 47 -7 54 -4 9 3 11 -1 7 -11 -4 -11 -3 -14 6 -9 6 4 9 16 6 27 -5 15 -3
17 11 12 11 -4 15 -3 11 4 -4 6 -1 13 5 16 7 2 11 7 8 10 -3 3 -14 1 -25 -5z"/>
<path d="M6730 6506 c0 -2 7 -7 16 -10 8 -3 12 -2 9 4 -6 10 -25 14 -25 6z"/>
<path d="M6963 6468 c-11 -19 -12 -38 -2 -38 5 0 9 4 9 9 0 11 19 9 39 -3 10
-7 12 -6 6 4 -5 8 -3 11 6 8 8 -3 13 -11 12 -17 -2 -6 0 -10 5 -9 20 4 42 -16
37 -33 -6 -18 11 -26 40 -19 6 1 16 3 23 3 17 0 15 14 -4 21 -24 9 -31 7 -14
-4 12 -8 10 -10 -8 -10 -13 0 -20 4 -17 10 3 5 -3 15 -14 22 -15 9 -17 16 -10
29 12 24 -7 35 -28 17 -15 -11 -16 -11 -9 6 7 19 6 19 -12 3 -17 -16 -20 -16
-25 -2 -8 18 -23 20 -34 3z m27 -2 c0 -2 -7 -7 -16 -10 -8 -3 -12 -2 -9 4 6
10 25 14 25 6z m72 -13 c-6 -2 -9 -10 -6 -15 4 -7 2 -8 -5 -4 -13 9 -5 26 12
25 9 0 8 -2 -1 -6z"/>
<path d="M2365 6431 c-3 -6 -10 -9 -14 -7 -4 3 -18 -9 -31 -27 -13 -18 -17
-27 -9 -21 8 7 22 8 34 3 11 -4 15 -8 9 -8 -17 -1 -25 -29 -12 -37 7 -4 8 -3
4 4 -4 7 -2 12 3 12 6 0 11 -5 11 -11 0 -5 4 -8 9 -4 6 3 8 -3 6 -15 -4 -20
14 -24 27 -5 5 6 8 5 8 -2 0 -7 5 -13 11 -13 5 0 7 6 3 13 -4 6 2 3 14 -7 23
-20 31 -36 9 -18 -9 7 -17 8 -27 1 -13 -9 -13 -10 0 -6 8 2 26 -5 40 -17 16
-14 20 -15 11 -3 -9 11 -10 17 -2 17 6 0 11 8 11 17 0 9 3 13 6 10 11 -11 46
14 40 29 -3 8 -1 14 5 14 6 0 8 8 4 19 -7 22 4 53 16 45 5 -3 9 0 9 6 0 7 -6
10 -14 7 -7 -3 -18 -1 -23 4 -6 6 -10 -4 -11 -27 -2 -51 -10 -72 -33 -85 -17
-8 -24 -6 -40 12 -10 12 -29 27 -41 33 -32 17 -46 44 -28 56 8 5 12 12 8 15
-3 4 -9 1 -13 -4z m155 -105 c0 -2 -7 -7 -16 -10 -8 -3 -12 -2 -9 4 6 10 25
14 25 6z"/>
<path d="M6976 6421 c-10 -15 18 -31 34 -19 12 8 11 9 -4 4 -13 -5 -17 -2 -12
9 6 16 -9 21 -18 6z"/>
<path d="M7110 6426 c0 -3 9 -10 20 -16 11 -6 20 -8 20 -6 0 3 -9 10 -20 16
-11 6 -20 8 -20 6z"/>
<path d="M7030 6400 c0 -12 28 -21 35 -11 2 5 -4 11 -15 14 -11 3 -20 2 -20
-3z"/>
<path d="M7183 6375 c0 -8 4 -12 9 -9 5 3 6 10 3 15 -9 13 -12 11 -12 -6z"/>
<path d="M7203 6354 c-41 -21 -42 -34 -3 -28 18 3 30 1 30 -6 0 -6 4 -9 9 -6
5 3 11 -3 14 -14 3 -10 1 -20 -3 -22 -5 -2 4 -12 18 -22 l27 -20 -18 21 c-14
16 -15 22 -5 26 10 4 10 6 1 6 -7 1 -13 9 -13 19 0 15 2 15 11 2 9 -12 10 -12
5 3 -4 12 -2 17 6 14 7 -2 12 -13 10 -23 -2 -18 -2 -18 8 -1 6 9 17 14 23 10
7 -3 4 3 -7 15 -14 16 -23 19 -37 12 -10 -6 -26 -10 -35 -10 -16 0 -16 1 2 15
18 15 18 15 0 8 -13 -4 -17 -3 -12 5 9 15 8 15 -31 -4z m27 -8 c0 -2 -9 -6
-20 -9 -11 -3 -18 -1 -14 4 5 9 34 13 34 5z"/>
<path d="M7087 6349 c7 -7 15 -10 18 -7 3 3 -2 9 -12 12 -14 6 -15 5 -6 -5z"/>
<path d="M7120 6356 c0 -2 7 -7 16 -10 8 -3 12 -2 9 4 -6 10 -25 14 -25 6z"/>
<path d="M7308 6286 c-16 -12 -15 -13 11 -12 22 1 27 4 19 14 -6 6 -11 12 -12
12 0 0 -9 -7 -18 -14z"/>
<path d="M2485 6280 c-3 -5 1 -10 9 -10 9 0 16 5 16 10 0 6 -4 10 -9 10 -6 0
-13 -4 -16 -10z"/>
<path d="M7368 6271 c-16 -9 -28 -20 -28 -24 0 -5 5 -5 10 -2 6 3 10 1 10 -5
0 -8 7 -9 18 -5 9 4 28 9 42 12 37 7 40 16 3 10 -38 -6 -43 0 -11 12 20 7 20
8 2 13 -10 2 -31 -3 -46 -11z"/>
<path d="M2498 6254 c6 -3 9 -11 6 -16 -4 -7 -2 -8 4 -4 7 4 13 2 13 -3 1 -6
2 -17 3 -23 1 -8 15 -13 34 -13 19 0 32 -5 32 -12 0 -18 7 -16 30 5 19 18 19
18 -3 19 -12 1 -32 4 -44 8 -15 5 -23 3 -23 -4 0 -6 -4 -11 -8 -11 -5 0 -9 7
-9 15 0 8 3 12 7 10 4 -2 15 2 25 9 14 10 15 15 5 21 -8 5 -11 4 -7 -2 4 -6 0
-13 -7 -16 -8 -3 -16 -1 -18 5 -2 6 -15 12 -29 14 -13 1 -18 0 -11 -2z"/>
<path d="M7467 6249 c7 -7 15 -10 18 -7 3 3 -2 9 -12 12 -14 6 -15 5 -6 -5z"/>
<path d="M7430 6229 c0 -5 5 -7 10 -4 6 3 10 8 10 11 0 2 -4 4 -10 4 -5 0 -10
-5 -10 -11z"/>
<path d="M7498 6230 c-5 -16 -71 -22 -80 -7 -6 9 -8 9 -8 -1 0 -8 9 -16 20
-19 11 -3 20 -9 20 -14 0 -4 9 -7 19 -6 10 0 17 6 14 12 -2 7 6 16 18 22 14 6
19 12 12 16 -6 4 -13 2 -15 -3z m-28 -30 c0 -5 -2 -10 -4 -10 -3 0 -8 5 -11
10 -3 6 -1 10 4 10 6 0 11 -4 11 -10z"/>
<path d="M7530 6209 c0 -5 -5 -7 -10 -4 -6 4 -10 3 -9 -2 1 -4 0 -10 -1 -13
-1 -3 -3 -16 -4 -29 l-3 -23 18 23 c17 23 18 23 13 3 -3 -12 -2 -24 3 -27 10
-6 10 39 0 49 -3 3 -3 12 0 20 3 8 2 14 -1 14 -3 0 -6 -5 -6 -11z"/>
<path d="M7351 6198 c2 -2 19 -16 37 -32 17 -17 32 -27 32 -23 0 9 -53 57 -64
57 -5 0 -7 -1 -5 -2z"/>
<path d="M2665 6180 c28 -12 37 -12 30 0 -3 6 -16 10 -28 9 -21 0 -21 -1 -2
-9z"/>
<path d="M7568 6170 c-15 -17 -15 -18 13 -16 37 3 45 12 22 25 -15 8 -23 6
-35 -9z"/>
<path d="M2650 6159 c0 -5 4 -8 9 -4 5 3 12 1 16 -5 3 -5 11 -10 17 -10 7 0 6
6 -2 15 -14 17 -40 20 -40 4z"/>
<path d="M2711 6154 c0 -11 3 -14 6 -6 3 7 2 16 -1 19 -3 4 -6 -2 -5 -13z"/>
<path d="M2743 6151 c1 -11 6 -21 12 -21 5 0 3 -5 -5 -11 -13 -9 -13 -10 2 -6
9 3 22 -1 28 -9 10 -11 10 -14 0 -14 -9 0 -7 -7 5 -20 19 -21 27 -20 31 6 2
12 -1 13 -12 3 -9 -8 -14 -8 -14 -1 0 6 7 15 16 20 23 13 13 34 -17 39 -13 2
-29 11 -36 19 -10 14 -12 14 -10 -5z m56 -30 c8 -5 9 -11 3 -15 -5 -3 -15 1
-22 9 -14 16 -3 20 19 6z"/>
<path d="M7626 6151 c-4 -6 -16 -11 -27 -11 -25 0 -24 -16 1 -37 11 -10 20
-21 20 -26 0 -5 -6 -4 -13 2 -8 6 -16 9 -19 6 -3 -3 -11 1 -18 10 -7 8 -17 15
-22 15 -6 0 0 -9 13 -20 13 -10 19 -19 14 -20 -6 0 -16 5 -23 12 -7 7 -12 8
-12 4 0 -5 -7 -3 -15 4 -8 7 -15 9 -15 4 0 -5 -5 -2 -11 6 -7 10 -9 11 -7 2 2
-8 7 -13 11 -13 4 1 16 -8 27 -19 12 -12 26 -17 36 -13 12 4 15 3 10 -5 -4 -7
-3 -12 2 -12 6 0 13 8 17 18 6 16 7 16 16 -1 6 -9 15 -15 20 -11 14 8 0 45
-25 66 -29 24 -1 23 31 -1 13 -11 30 -18 38 -15 7 3 16 0 20 -5 3 -6 11 -9 16
-6 5 4 9 2 9 -4 0 -5 3 -17 7 -27 5 -13 3 -15 -7 -9 -8 5 -11 4 -6 -3 3 -6 2
-14 -4 -17 -8 -5 -7 -11 1 -21 6 -8 8 -14 3 -14 -16 0 13 -21 36 -25 13 -2 27
-10 32 -17 4 -7 8 -9 8 -5 0 4 10 -1 21 -12 17 -15 24 -17 34 -8 7 7 10 19 7
27 -5 13 -3 13 11 2 15 -13 13 -47 -2 -37 -4 2 -8 -2 -8 -10 0 -8 2 -13 5 -10
2 2 13 -6 23 -18 11 -13 18 -17 19 -9 0 7 5 10 10 7 6 -4 8 -11 4 -16 -3 -5
-2 -9 3 -8 21 4 34 -2 27 -13 -5 -7 -3 -8 6 -3 10 6 7 12 -10 25 -25 19 -34
46 -19 56 5 3 9 -2 9 -10 0 -17 39 -48 52 -40 4 3 8 0 8 -5 0 -6 5 -10 11 -8
6 1 14 -4 17 -12 3 -9 0 -11 -8 -6 -8 5 -11 4 -6 -3 3 -5 3 -12 -1 -15 -5 -2
-1 -2 7 1 8 2 24 5 35 6 11 1 19 8 17 15 -1 7 2 10 8 6 8 -5 7 -12 -2 -22 -11
-14 -10 -15 12 -10 14 4 19 4 13 1 -7 -3 -13 -10 -13 -15 0 -6 5 -7 10 -4 6 3
10 1 10 -4 0 -6 -6 -11 -12 -12 -7 0 -3 -5 8 -11 12 -5 27 -21 33 -35 6 -13
16 -21 21 -18 6 4 8 11 5 16 -4 5 0 9 7 9 10 0 10 2 -1 9 -8 5 -10 14 -6 21 6
9 4 11 -4 6 -7 -5 -10 -14 -7 -22 3 -8 1 -14 -4 -14 -6 0 -10 9 -10 20 0 14
-5 18 -16 13 -14 -5 -15 -3 -5 14 8 16 7 24 -4 33 -7 6 -11 19 -8 27 4 11 3
14 -6 9 -13 -9 -43 12 -36 24 3 5 1 11 -4 14 -5 4 -8 -2 -6 -11 2 -10 4 -18 5
-18 1 0 3 -8 5 -17 4 -22 0 -22 -25 -1 -20 18 -28 39 -10 28 16 -10 12 1 -6
15 -12 11 -15 11 -12 0 3 -16 -21 -20 -39 -7 -7 5 -10 14 -6 20 3 6 1 7 -5 3
-7 -4 -12 -2 -12 3 0 6 5 11 10 11 6 0 10 4 10 9 0 12 -40 5 -54 -9 -15 -15
-29 -12 -23 5 4 8 2 17 -4 20 -5 4 -7 11 -3 16 3 6 11 6 18 2 7 -4 5 -1 -4 7
-9 8 -19 22 -22 31 -4 9 -42 36 -85 59 -43 24 -80 47 -81 52 -2 4 -8 5 -13 2
-6 -3 -21 6 -33 21 -15 17 -26 23 -30 16z m28 -28 c11 -13 16 -23 13 -23 -10
0 -37 31 -37 42 0 6 1 9 3 7 1 -2 11 -14 21 -26z m116 -72 c0 -5 -7 -14 -15
-21 -8 -7 -15 -9 -15 -5 0 5 -2 6 -5 3 -9 -9 6 -38 16 -32 5 3 7 10 3 15 -3 5
0 8 8 7 7 -2 16 -11 21 -22 4 -10 13 -16 21 -13 8 3 17 -1 20 -9 3 -9 10 -13
15 -10 5 3 7 -3 4 -14 -7 -25 -9 -25 -40 0 -14 11 -22 20 -18 20 4 0 2 7 -6
16 -12 14 -14 14 -26 -2 -8 -10 -13 -13 -13 -5 0 7 -5 9 -12 5 -6 -4 -8 -3 -4
4 3 6 1 14 -4 17 -8 5 -6 13 5 25 9 10 13 24 9 35 -6 15 -4 16 14 6 12 -7 22
-15 22 -20z m44 -17 c9 -3 14 -10 11 -14 -3 -4 2 -11 11 -14 10 -4 13 -2 8 7
-5 8 -4 9 3 2 6 -5 14 -21 18 -35 7 -22 6 -23 -9 -11 -9 7 -16 10 -16 5 0 -5
-5 -1 -11 9 -6 9 -14 15 -19 12 -5 -3 -14 4 -20 15 -6 11 -16 17 -22 14 -7 -4
-8 -3 -4 4 8 13 26 15 50 6z m91 -144 c-3 -5 -12 -10 -18 -10 -7 0 -6 4 3 10
19 12 23 12 15 0z"/>
<path d="M7800 5966 c0 -2 7 -9 15 -16 9 -7 15 -8 15 -2 0 5 -7 12 -15 16 -8
3 -15 4 -15 2z"/>
<path d="M2852 6098 c2 -6 10 -13 16 -14 7 -1 8 0 2 3 -5 2 -8 9 -4 14 3 5 0
9 -6 9 -7 0 -10 -5 -8 -12z"/>
<path d="M3185 6091 c-3 -6 5 -15 17 -21 21 -10 21 -10 6 3 -10 8 -15 17 -11
20 3 4 4 7 0 7 -3 0 -8 -4 -12 -9z"/>
<path d="M2888 6081 c-1 -6 -14 -12 -28 -14 -17 -3 -25 -11 -26 -25 -1 -21 15
-25 27 -8 4 5 19 9 34 9 17 0 23 2 14 7 -7 5 -23 4 -35 0 -13 -5 -26 -6 -28
-1 -5 8 1 9 49 12 14 1 28 7 32 13 3 6 3 8 -2 4 -4 -4 -14 -3 -21 3 -8 6 -13
6 -16 0z"/>
<path d="M2950 6060 c0 -8 8 -16 18 -16 9 -1 29 -4 45 -7 17 -4 27 -1 27 6 0
7 4 6 11 -3 8 -13 9 -12 7 4 -2 10 3 21 11 24 8 2 11 0 8 -5 -3 -5 0 -10 7
-10 7 0 13 6 13 12 0 6 -13 11 -28 11 -15 0 -27 -4 -26 -9 1 -5 -4 -12 -11
-14 -8 -3 -10 2 -6 14 4 11 3 14 -3 6 -11 -15 -49 -21 -46 -7 1 6 -5 11 -13
11 -7 0 -14 -8 -14 -17z"/>
<path d="M3160 6069 c0 -5 -4 -8 -9 -4 -5 3 -12 1 -15 -4 -4 -5 7 -9 24 -9 24
1 28 4 19 15 -14 16 -19 17 -19 2z"/>
<path d="M7674 6071 c4 -6 0 -14 -8 -17 -9 -3 -16 -10 -16 -16 0 -5 4 -7 9 -3
5 3 12 1 15 -4 4 -5 -4 -12 -16 -14 -21 -5 -20 -5 2 -4 14 1 23 6 22 11 -2 5
2 13 10 17 10 7 10 9 0 9 -7 0 -11 4 -7 9 3 5 0 13 -6 17 -8 4 -9 3 -5 -5z"/>
<path d="M3076 6028 c3 -5 10 -6 15 -3 13 9 11 12 -6 12 -8 0 -12 -4 -9 -9z"/>
<path d="M7896 6007 c3 -10 9 -15 12 -12 3 3 0 11 -7 18 -10 9 -11 8 -5 -6z"/>
<path d="M2845 5999 c5 -8 0 -9 -16 -5 l-24 7 25 -15 c14 -8 29 -11 35 -8 16
10 36 11 29 1 -3 -5 -10 -7 -15 -4 -5 4 -9 1 -9 -4 0 -15 15 -14 29 3 14 17 1
28 -37 34 -16 2 -21 -1 -17 -9z"/>
<path d="M2958 5998 c5 -5 16 -8 23 -6 8 3 3 7 -10 11 -17 4 -21 3 -13 -5z"/>
<path d="M3020 5967 c0 -9 -6 -15 -12 -13 -7 1 -10 1 -5 -1 19 -11 4 -22 -18
-13 -14 5 -32 7 -42 3 -12 -5 -14 -3 -8 7 5 9 4 11 -4 6 -18 -12 -2 -28 21
-20 14 4 18 2 14 -5 -5 -7 -1 -8 10 -4 13 5 16 2 12 -9 -8 -20 53 -51 73 -36
11 8 9 9 -6 4 -18 -5 -17 -4 3 10 32 24 30 33 -21 73 -15 12 -17 11 -17 -2z
m50 -50 c0 -6 -3 -7 -7 -4 -3 4 -15 0 -25 -10 -12 -10 -18 -12 -18 -4 0 7 -5
9 -11 5 -6 -3 -3 8 6 26 16 31 17 31 36 14 10 -9 19 -22 19 -27z"/>
<path d="M3034 5942 c3 -5 0 -13 -6 -15 -9 -4 -10 -6 -1 -6 17 -1 25 16 12 25
-7 4 -9 3 -5 -4z"/>
<path d="M7920 5970 c8 -5 20 -10 25 -10 6 0 3 5 -5 10 -8 5 -19 10 -25 10 -5
0 -3 -5 5 -10z"/>
<path d="M4380 5962 c0 -6 -11 -14 -25 -18 -14 -3 -22 -11 -19 -16 4 -6 -2 -8
-15 -3 -14 4 -21 2 -21 -7 0 -10 -2 -10 -8 0 -6 9 -12 5 -22 -13 -14 -27 -25
-31 -35 -15 -3 6 -1 10 6 10 7 0 10 3 6 6 -3 3 -14 1 -24 -5 -10 -6 -13 -11
-6 -11 7 0 10 -6 8 -12 -3 -7 -1 -19 4 -27 8 -12 12 -12 25 -2 9 8 16 22 16
33 0 11 5 16 11 13 6 -4 17 1 24 11 8 11 15 14 15 8 0 -6 7 -11 14 -11 8 0 15
3 14 6 -2 19 4 22 18 11 8 -8 14 -9 13 -4 -1 5 1 17 6 27 4 10 5 21 1 24 -3 4
-6 1 -6 -5z m-120 -98 c0 -2 -7 -4 -15 -4 -8 0 -15 4 -15 10 0 5 7 7 15 4 8
-4 15 -8 15 -10z"/>
<path d="M3107 5913 c4 -10 2 -14 -4 -10 -6 4 -14 0 -17 -8 -4 -13 -2 -14 14
-5 11 6 24 9 29 6 4 -3 16 1 27 8 17 13 16 13 -9 11 -15 -2 -27 1 -27 6 0 5
-4 9 -10 9 -5 0 -6 -7 -3 -17z"/>
<path d="M4115 5909 c4 -6 -3 -7 -19 -3 -27 6 -36 -8 -14 -22 7 -5 8 -3 3 6
-5 9 -2 10 11 6 25 -8 53 9 29 17 -10 4 -14 3 -10 -4z"/>
<path d="M3174 5898 c-3 -5 -3 -12 0 -15 3 -4 6 -1 6 6 0 8 5 9 16 3 9 -5 25
-7 35 -5 22 6 26 -15 4 -23 -19 -8 -10 -24 13 -24 15 0 15 2 2 10 -10 6 -11
10 -2 10 14 0 16 26 3 35 -17 10 -71 13 -77 3z"/>
<path d="M3348 5893 c6 -2 10 -8 7 -13 -2 -4 7 -7 20 -7 14 0 25 4 25 10 0 6
3 7 6 4 15 -15 -18 -35 -49 -31 -22 3 -28 2 -18 -5 11 -7 10 -10 -5 -14 -12
-3 -8 -4 9 -4 15 1 27 4 27 8 0 4 21 5 48 3 43 -4 45 -3 28 10 -17 14 -16 15
20 9 22 -3 42 -11 46 -17 5 -8 8 -7 8 2 0 7 15 12 40 12 23 0 40 5 40 11 0 8
-18 10 -55 7 -31 -3 -58 -1 -61 4 -3 5 -12 4 -20 -3 -11 -9 -14 -9 -14 0 0 7
-5 9 -10 6 -6 -4 -17 -2 -25 5 -9 7 -15 8 -20 0 -4 -7 -12 -7 -25 0 -10 5 -22
10 -27 9 -4 0 -2 -3 5 -6z"/>
<path d="M3280 5880 c-9 -6 -10 -10 -3 -10 6 0 15 5 18 10 8 12 4 12 -15 0z"/>
<path d="M3316 5882 c-3 -5 1 -9 9 -9 8 0 12 4 9 9 -3 4 -7 8 -9 8 -2 0 -6 -4
-9 -8z"/>
<path d="M3640 5880 c0 -5 -6 -9 -12 -7 -8 1 -12 -8 -11 -23 1 -14 -1 -19 -3
-12 -6 13 -50 17 -58 4 -2 -4 5 -9 17 -10 45 -5 62 -10 60 -19 -1 -5 4 -10 12
-10 8 0 13 5 12 11 -1 6 4 10 11 8 8 -1 11 2 7 8 -5 8 -11 7 -21 -1 -9 -8 -14
-8 -14 -1 0 6 8 16 18 21 9 6 11 11 5 11 -7 0 -13 4 -13 10 0 5 8 7 18 4 14
-5 15 -4 2 5 -19 13 -30 14 -30 1z m10 -25 c0 -12 -19 -12 -23 0 -4 9 -1 12 9
8 7 -3 14 -7 14 -8z"/>
<path d="M3941 5873 c8 -13 17 -23 21 -23 5 0 8 -8 8 -17 -1 -15 -5 -13 -23 8
-18 22 -27 25 -49 18 -23 -6 -63 -5 -63 1 0 1 -22 4 -50 5 -35 3 -44 1 -29 -5
31 -13 36 -35 8 -38 -12 -1 -25 2 -29 7 -3 5 5 7 17 3 15 -4 19 -2 14 7 -14
21 -39 8 -40 -21 -1 -16 2 -28 6 -28 4 0 5 -7 2 -15 -4 -8 -10 -12 -15 -9 -15
9 -10 -13 5 -25 17 -15 29 0 19 25 -4 11 -3 15 5 10 7 -4 10 1 7 15 -2 12 -2
19 2 16 3 -4 21 0 39 8 19 8 34 11 34 7 0 -3 5 -1 12 6 14 14 32 16 24 3 -4
-5 2 -8 11 -6 10 2 22 4 26 4 5 1 5 7 1 14 -4 7 -3 9 2 4 5 -5 9 -14 9 -19 0
-6 6 -13 14 -16 9 -3 11 0 5 9 -6 12 -5 12 8 1 11 -9 23 -10 41 -3 17 7 28 7
32 1 7 -12 55 -9 55 3 0 5 -11 6 -25 3 -18 -5 -23 -3 -19 7 3 10 20 13 52 11
26 -1 52 2 59 7 7 7 14 6 19 -2 5 -8 3 -10 -7 -4 -11 6 -11 5 -2 -5 7 -8 19
-10 30 -5 10 5 25 7 33 6 11 -1 10 1 -3 9 -9 6 -15 15 -12 20 3 5 1 11 -4 15
-6 3 -8 -3 -6 -15 2 -11 -1 -22 -6 -26 -5 -3 -9 -2 -8 3 4 22 -2 32 -16 27 -9
-4 -15 0 -15 7 0 11 -2 11 -10 -1 -5 -8 -14 -16 -20 -16 -5 -1 -11 -3 -12 -4
-2 -1 -18 -3 -36 -4 -18 -1 -37 -8 -42 -16 -8 -13 -10 -12 -10 3 0 9 -4 17
-10 17 -5 0 -7 -7 -4 -15 4 -8 2 -15 -4 -15 -11 0 -10 25 1 36 3 3 21 10 39
14 32 8 32 8 -9 7 -23 0 -40 -4 -37 -8 10 -18 -19 -19 -38 -2 -21 18 -21 18
-7 -4z m-136 -23 c-3 -5 -1 -10 6 -10 7 0 10 -3 6 -6 -9 -9 -28 6 -22 17 4 5
8 9 11 9 3 0 2 -4 -1 -10z m33 -15 c-3 -3 -9 2 -12 12 -6 14 -5 15 5 6 7 -7
10 -15 7 -18z"/>
<path d="M3700 5861 c0 -7 -5 -9 -12 -5 -7 5 -8 3 -3 -5 5 -9 10 -10 18 -2 6
6 8 14 4 18 -4 3 -7 1 -7 -6z"/>
<path d="M3188 5853 c7 -3 16 -2 19 1 4 3 -2 6 -13 5 -11 0 -14 -3 -6 -6z"/>
<path d="M4118 5823 c7 -3 16 -2 19 1 4 3 -2 6 -13 5 -11 0 -14 -3 -6 -6z"/>
<path d="M8035 5801 c3 -6 10 -9 15 -6 4 3 11 0 13 -5 3 -6 4 -5 3 2 -1 7 -11
15 -21 16 -11 3 -15 0 -10 -7z"/>
<path d="M8140 5806 c0 -2 7 -7 16 -10 8 -3 12 -2 9 4 -6 10 -25 14 -25 6z"/>
<path d="M7967 5789 c7 -7 15 -10 18 -7 3 3 -2 9 -12 12 -14 6 -15 5 -6 -5z"/>
<path d="M3766 5758 c-4 -17 2 -29 22 -45 15 -12 22 -22 17 -23 -6 0 -18 6
-25 12 -10 9 -10 7 1 -5 8 -9 25 -19 38 -22 13 -2 29 -9 36 -15 10 -8 15 -8
20 0 5 8 11 8 21 -1 16 -13 19 -33 4 -24 -5 3 -10 1 -10 -4 0 -6 4 -11 10 -11
5 0 18 -10 30 -22 14 -15 23 -19 30 -12 7 7 -5 26 -37 57 -39 39 -49 44 -54
30 -5 -15 -6 -15 -12 0 -3 9 -14 17 -22 17 -10 0 -13 5 -9 12 4 6 3 8 -3 5 -6
-4 -13 2 -16 13 -3 14 -10 18 -22 14 -13 -5 -15 -2 -9 20 3 14 4 26 1 26 -2 0
-7 -10 -11 -22z m179 -148 c10 -11 15 -20 12 -20 -4 0 -16 9 -27 20 -11 11
-16 20 -12 20 5 0 17 -9 27 -20z"/>
<path d="M8040 5756 c0 -3 9 -10 20 -16 11 -6 20 -8 20 -6 0 3 -9 10 -20 16
-11 6 -20 8 -20 6z"/>
<path d="M3820 5734 c8 -8 23 -20 34 -25 20 -9 20 -9 3 4 -10 8 -14 17 -10 19
4 3 2 3 -4 2 -7 -2 -13 1 -13 6 0 6 -5 10 -11 10 -8 0 -7 -5 1 -16z"/>
<path d="M8057 5719 c7 -7 15 -10 18 -7 3 3 -2 9 -12 12 -14 6 -15 5 -6 -5z"/>
<path d="M8170 5723 c0 -6 7 -19 16 -27 8 -9 12 -21 8 -27 -4 -8 -3 -9 4 -5 7
4 12 2 12 -5 0 -7 6 -4 14 7 15 19 15 19 30 -1 17 -23 13 -33 -8 -16 -11 9
-15 8 -19 -3 -4 -9 -1 -18 5 -22 7 -4 8 -3 4 4 -4 7 -3 12 3 12 14 0 19 -23 9
-43 -6 -12 -5 -17 4 -15 7 2 12 -2 11 -9 -2 -8 4 -10 14 -6 10 4 14 2 10 -4
-4 -6 0 -14 9 -17 23 -9 31 -7 14 4 -11 7 -12 12 -4 20 8 8 15 6 25 -6 11 -14
11 -18 -6 -30 -10 -8 -15 -14 -9 -15 5 0 20 -2 33 -5 20 -4 22 -2 11 11 -10
12 -10 18 0 30 7 8 8 15 3 15 -5 0 -16 11 -23 25 -15 29 -37 28 -32 -1 3 -18
3 -18 -14 -2 -17 17 -17 18 1 32 18 13 18 14 -3 20 -20 7 -26 18 -23 39 0 4
-2 6 -6 6 -23 -4 -31 3 -28 22 3 17 1 18 -9 10 -16 -13 -37 -11 -48 4 -5 6 -8
6 -8 -2z m56 -30 c-1 -7 -5 -15 -9 -18 -4 -3 -5 -2 -2 2 3 3 -2 11 -11 17 -13
10 -13 12 4 12 11 0 19 -6 18 -13z m59 -63 c-3 -5 -12 -10 -18 -10 -7 0 -6 4
3 10 19 12 23 12 15 0z m-7 -45 c-3 -3 -9 2 -12 12 -6 14 -5 15 5 6 7 -7 10
-15 7 -18z m63 -7 c8 -15 8 -18 0 -14 -6 4 -16 16 -22 28 -8 15 -8 18 0 14 6
-4 16 -16 22 -28z"/>
<path d="M8114 5688 c-4 -7 -3 -10 1 -5 5 4 18 -1 29 -10 21 -18 21 -18 2 5
-22 26 -23 26 -32 10z"/>
<path d="M8205 5610 c10 -11 20 -20 23 -20 3 0 -3 9 -13 20 -10 11 -20 20 -23
20 -3 0 3 -9 13 -20z"/>
<path d="M3897 5579 c7 -7 15 -10 18 -7 3 3 -2 9 -12 12 -14 6 -15 5 -6 -5z"/>
<path d="M3957 5556 c-3 -8 4 -22 16 -33 50 -43 70 -57 63 -45 -4 6 -2 12 3
12 10 0 15 -13 13 -31 -1 -3 6 -6 14 -6 10 0 11 4 4 11 -14 14 -13 29 2 20 7
-5 8 -3 4 5 -5 7 -10 10 -13 7 -3 -3 -15 0 -27 6 -11 7 -25 11 -30 10 -15 -5
-45 29 -39 44 3 8 3 14 0 14 -3 0 -7 -6 -10 -14z"/>
<path d="M3980 5551 c0 -10 19 -25 25 -20 1 2 -3 10 -11 17 -8 7 -14 8 -14 3z"/>
<path d="M8367 5544 c-4 -4 -2 -13 4 -21 6 -7 9 -13 6 -13 -3 0 8 -13 23 -30
15 -16 34 -30 41 -30 7 0 9 3 6 6 -3 4 -2 16 4 28 10 20 9 20 -5 2 -14 -18
-16 -18 -33 -1 -9 10 -17 27 -18 38 0 21 -16 33 -28 21z"/>
<path d="M8410 5515 c0 -8 2 -15 4 -15 2 0 6 7 10 15 3 8 1 15 -4 15 -6 0 -10
-7 -10 -15z"/>
<path d="M8340 5492 c0 -5 9 -17 20 -27 12 -10 18 -25 15 -32 -2 -8 -1 -12 4
-8 5 3 11 0 13 -7 3 -7 7 -4 12 7 4 11 4 16 0 13 -8 -8 -44 34 -44 51 0 6 -4
11 -10 11 -5 0 -10 -4 -10 -8z"/>
<path d="M8460 5445 c0 -8 2 -15 4 -15 2 0 6 7 10 15 3 8 1 15 -4 15 -6 0 -10
-7 -10 -15z"/>
<path d="M8500 5441 c0 -6 4 -13 10 -16 6 -3 7 1 4 9 -7 18 -14 21 -14 7z"/>
<path d="M8443 5422 c19 -21 22 -39 8 -44 -5 -1 3 -12 17 -22 27 -19 27 -19
10 0 -12 13 -14 24 -8 34 8 12 10 11 11 -5 1 -16 2 -16 8 5 11 36 2 55 -14 33
-13 -17 -14 -17 -20 0 -4 9 -12 17 -18 17 -5 0 -3 -8 6 -18z"/>
<path d="M8414 5400 c0 -13 4 -16 10 -10 7 7 7 13 0 20 -6 6 -10 3 -10 -10z"/>
<path d="M4145 5400 c3 -5 13 -6 23 -3 9 3 14 2 9 -2 -11 -13 23 -44 41 -38 9
4 13 2 9 -5 -4 -6 6 -17 23 -25 36 -18 38 -13 8 15 -13 11 -17 16 -9 12 9 -5
12 -3 7 4 -4 7 -14 12 -23 12 -9 0 -21 7 -28 16 -12 17 -70 30 -60 14z m59
-26 c5 -14 4 -15 -9 -4 -17 14 -19 20 -6 20 5 0 12 -7 15 -16z"/>
<path d="M8507 5404 c-3 -5 1 -15 9 -22 16 -14 18 -5 5 17 -5 7 -11 9 -14 5z"/>
<path d="M8510 5340 c4 -8 9 -19 10 -25 7 -32 13 -35 26 -18 11 14 13 14 9 2
-3 -8 -2 -25 2 -36 7 -18 10 -19 21 -7 11 12 10 14 -5 14 -17 1 -17 1 -1 14
15 11 14 14 -12 29 -18 11 -27 23 -24 32 4 9 -1 13 -14 12 -15 -1 -18 -5 -12
-17z m30 -30 c0 -5 -2 -10 -4 -10 -3 0 -8 5 -11 10 -3 6 -1 10 4 10 6 0 11 -4
11 -10z"/>
<path d="M4290 5304 c0 -5 7 -18 15 -28 8 -11 15 -16 15 -10 0 5 -7 18 -15 28
-8 11 -15 16 -15 10z"/>
<path d="M8484 5296 c1 -8 5 -18 8 -22 4 -3 5 1 4 10 -1 8 -5 18 -8 22 -4 3
-5 -1 -4 -10z"/>
<path d="M4316 5247 c-17 -12 -16 -14 8 -30 14 -9 29 -17 33 -17 5 0 17 -12
27 -27 9 -16 15 -20 12 -11 -3 11 2 19 15 23 10 4 19 10 19 14 0 13 -49 31
-55 21 -4 -6 -13 -10 -22 -10 -12 0 -13 3 -4 14 18 21 -10 40 -33 23z m29 -17
c-3 -5 -13 -6 -21 -3 -12 4 -13 8 -3 14 15 9 32 2 24 -11z m54 -23 c8 -10 7
-14 -4 -14 -8 0 -15 6 -15 14 0 7 2 13 4 13 2 0 9 -6 15 -13z"/>
<path d="M8616 5238 c10 -14 21 -24 23 -22 3 3 -6 15 -18 27 l-24 22 19 -27z"/>
<path d="M8575 5233 c-3 -10 -1 -19 4 -21 6 -2 9 -8 5 -13 -9 -15 3 -10 16 7
8 8 9 14 4 13 -20 -3 -28 2 -15 10 8 5 9 11 3 15 -5 3 -13 -2 -17 -11z"/>
<path d="M8595 5180 c-3 -6 1 -7 9 -4 18 7 21 14 7 14 -6 0 -13 -4 -16 -10z"/>
<path d="M8607 5163 c-10 -21 0 -38 21 -37 24 1 30 -11 10 -19 -10 -4 -10 -6
0 -6 8 -1 10 -6 6 -13 -5 -9 -2 -9 9 1 15 12 17 10 12 -20 -4 -27 -3 -30 4
-14 10 21 11 19 17 -28 1 -15 10 -42 18 -59 12 -23 13 -35 5 -44 -13 -15 -4
-34 16 -34 9 0 12 -6 9 -15 -5 -12 -9 -13 -20 -4 -12 10 -13 9 -8 -5 7 -18 13
-19 33 -7 17 11 7 41 -14 41 -8 0 -15 4 -15 9 0 5 9 7 20 4 11 -3 20 0 20 6 0
5 -7 8 -15 5 -11 -5 -13 -2 -9 10 3 9 10 14 14 11 5 -3 8 3 7 14 -1 15 -4 17
-14 9 -8 -6 -17 -8 -20 -4 -4 4 -2 11 6 15 10 6 9 10 -4 15 -9 3 -13 10 -10
16 3 5 1 10 -5 10 -6 0 -8 4 -5 10 3 5 -5 32 -19 60 -28 56 -19 68 13 18 11
-18 21 -28 21 -22 0 7 -13 26 -29 42 -21 23 -34 29 -51 25 -16 -4 -21 -3 -16
5 4 7 5 12 2 12 -3 0 -7 -3 -9 -7z"/>
<path d="M4430 5137 c14 -13 31 -24 38 -24 18 0 16 3 -25 27 l-38 21 25 -24z"/>
<path d="M4367 5136 c-4 -11 -5 -21 -2 -24 3 -3 5 0 5 7 0 7 5 9 12 5 7 -5 5
-11 -7 -21 -17 -12 -17 -13 -2 -13 9 0 17 3 18 8 0 4 2 15 4 25 2 9 0 15 -5
12 -5 -3 -10 0 -12 7 -3 7 -7 5 -11 -6z"/>
<path d="M4515 5101 c-3 -6 3 -15 14 -21 12 -6 22 -6 26 -1 3 6 -3 15 -14 21
-12 6 -22 6 -26 1z"/>
<path d="M4318 5083 c6 -3 10 -9 6 -14 -3 -5 -1 -9 4 -9 21 0 19 26 -2 27 -11
0 -15 -1 -8 -4z"/>
<path d="M4356 5065 c-2 -7 0 -17 5 -22 5 -5 0 -14 -11 -21 -19 -12 -25 -7
-22 19 1 3 -5 6 -13 6 -7 0 -11 -7 -7 -15 3 -9 1 -13 -4 -9 -6 3 -11 -3 -11
-14 -2 -20 12 -26 22 -9 4 6 10 8 13 6 12 -7 49 27 56 50 4 14 2 21 -8 21 -9
0 -17 -6 -20 -12z"/>
<path d="M4565 5070 c-3 -6 1 -7 10 -4 10 4 14 1 12 -7 -2 -8 -2 -11 0 -7 2 4
12 4 21 1 13 -4 12 -2 -3 10 -24 19 -32 21 -40 7z"/>
<path d="M4606 5031 c-7 -11 22 -23 35 -15 5 3 7 10 4 15 -8 12 -32 12 -39 0z"/>
<path d="M4270 5021 c0 -7 -5 -9 -12 -5 -7 5 -8 3 -3 -5 5 -9 10 -10 18 -2 6
6 8 14 4 18 -4 3 -7 1 -7 -6z"/>
<path d="M4683 5010 c-1 -11 2 -20 7 -20 4 0 7 7 6 15 -3 23 -12 26 -13 5z"/>
<path d="M4710 4994 c0 -8 5 -12 10 -9 6 4 8 11 5 16 -9 14 -15 11 -15 -7z"/>
<path d="M4236 4978 c-5 -16 -13 -25 -19 -21 -5 3 -7 2 -4 -4 7 -11 36 -11 55
1 15 9 16 36 1 36 -5 0 -7 -4 -4 -10 3 -5 2 -10 -4 -10 -5 0 -11 8 -14 18 -3
13 -6 10 -11 -10z"/>
<path d="M4735 4980 c-3 -5 -1 -10 4 -10 6 0 11 5 11 10 0 6 -2 10 -4 10 -3 0
-8 -4 -11 -10z"/>
<path d="M5010 4979 c0 -5 -4 -8 -8 -5 -12 7 -38 -12 -29 -21 5 -4 12 -1 17 7
7 11 10 11 10 2 0 -7 -10 -17 -22 -22 -17 -6 -18 -9 -6 -9 9 -1 26 13 38 29
12 17 17 30 11 30 -6 0 -11 -5 -11 -11z"/>
<path d="M4765 4969 c4 -5 11 -7 16 -4 5 4 9 1 9 -4 0 -6 -12 -11 -26 -11 -20
0 -25 -4 -20 -16 5 -14 4 -15 -8 -5 -10 8 -16 9 -21 1 -3 -6 -10 -8 -15 -5 -5
3 -12 0 -16 -6 -4 -7 -3 -9 4 -5 5 3 13 0 15 -6 4 -10 6 -10 6 -1 1 7 8 10 16
7 8 -4 22 -1 30 6 8 6 20 8 26 4 8 -4 9 -3 5 4 -4 7 -1 12 9 12 10 0 13 5 9
12 -4 7 -3 8 5 4 9 -6 9 -11 0 -22 -8 -10 -8 -14 -1 -14 6 0 17 10 23 23 6 12
8 19 4 15 -5 -4 -14 -3 -21 2 -16 14 -56 22 -49 9z"/>
<path d="M4190 4947 c0 -8 -8 -18 -17 -20 -17 -4 -17 -5 0 -6 18 -1 35 25 23
36 -3 4 -6 -1 -6 -10z"/>
<path d="M4648 4923 c7 -3 16 -2 19 1 4 3 -2 6 -13 5 -11 0 -14 -3 -6 -6z"/>
<path d="M4085 4903 c-18 -14 -18 -15 -1 -9 10 3 24 2 30 -3 7 -6 18 -4 31 6
20 15 20 15 -2 8 -14 -4 -23 -2 -23 4 0 15 -11 13 -35 -6z"/>
<path d="M4964 4913 c4 -8 1 -13 -8 -13 -22 0 -28 -16 -11 -30 13 -11 14 -10
9 4 -3 9 -2 16 4 16 18 0 6 -33 -12 -36 -10 -1 -23 -10 -30 -20 -7 -9 -24 -19
-36 -21 -13 -2 -29 -8 -36 -14 -7 -6 -19 -7 -26 -3 -10 6 -10 4 0 -7 7 -8 23
-14 35 -14 12 0 23 -3 25 -7 6 -19 1 -27 -13 -22 -18 7 -47 -14 -39 -27 3 -5
10 -7 15 -3 5 3 6 10 3 16 -5 7 2 9 18 5 26 -7 45 13 32 34 -3 5 0 9 5 9 6 0
11 7 11 15 0 8 5 15 11 15 5 0 8 4 4 9 -3 5 -1 12 5 16 5 3 10 1 10 -4 0 -19
19 -12 36 14 14 21 14 28 3 42 -8 9 -12 18 -11 20 2 3 0 8 -4 11 -4 4 -4 1 0
-5z m-70 -122 c-8 -8 -53 -7 -48 1 3 4 16 7 29 6 13 -1 22 -4 19 -7z"/>
<path d="M4635 4901 c-3 -6 -15 -10 -28 -10 -12 0 -32 -1 -44 -1 -12 0 -25 -5
-28 -10 -4 -6 -11 -7 -17 -4 -7 4 -8 2 -4 -4 4 -7 2 -12 -5 -12 -8 0 -8 -4 1
-15 9 -11 15 -12 20 -5 9 15 77 50 83 43 3 -3 16 2 29 11 12 9 17 16 11 16 -7
0 -14 -4 -18 -9z"/>
<path d="M4089 4883 c-1 -5 -1 -11 0 -15 0 -4 -6 -5 -14 -2 -8 4 -15 1 -15 -5
0 -6 6 -11 13 -11 14 0 37 20 37 32 0 10 -20 11 -21 1z"/>
<path d="M4145 4880 c-3 -6 1 -7 9 -4 18 7 21 14 7 14 -6 0 -13 -4 -16 -10z"/>
<path d="M3970 4861 c-7 -14 -6 -21 3 -25 6 -3 2 -3 -10 0 -32 8 -71 -5 -52
-17 8 -5 19 -9 24 -9 6 0 3 5 -5 10 -13 8 -12 10 3 10 9 0 17 -5 17 -10 0 -7
8 -6 23 2 12 7 25 11 30 10 4 -1 6 3 5 9 -2 6 3 14 11 17 8 3 11 0 7 -7 -5 -7
-1 -9 9 -5 18 7 18 7 -14 24 -13 6 -21 8 -17 2 3 -5 -2 -16 -11 -23 -14 -12
-15 -11 -9 9 9 27 0 29 -14 3z"/>
<path d="M3928 4853 c7 -3 16 -2 19 1 4 3 -2 6 -13 5 -11 0 -14 -3 -6 -6z"/>
<path d="M4435 4840 c-9 -15 4 -30 20 -23 8 3 15 13 14 22 0 10 -2 11 -6 4 -2
-7 -9 -13 -14 -13 -6 0 -7 5 -4 10 3 6 4 10 1 10 -3 0 -8 -4 -11 -10z"/>
<path d="M8726 4840 c-17 -6 -18 -7 -3 -13 9 -3 17 -14 17 -22 0 -10 -5 -13
-12 -9 -7 4 -8 3 -4 -5 4 -6 11 -9 16 -6 4 3 11 -1 13 -7 3 -7 5 4 4 25 0 43
-4 47 -31 37z"/>
<path d="M3829 4835 c-1 -3 -2 -11 -3 -17 -1 -7 -7 -12 -14 -10 -7 1 -15 -5
-18 -13 -3 -8 -10 -12 -15 -9 -5 3 -8 0 -7 -8 2 -7 -4 -12 -12 -10 -11 3 -12
1 -4 -8 14 -14 57 17 47 34 -4 6 1 5 10 -3 15 -12 17 -11 17 3 0 10 4 15 8 12
4 -2 14 -1 22 5 12 7 10 9 -8 9 -13 0 -20 4 -17 10 3 6 4 10 1 10 -3 0 -7 -2
-7 -5z"/>
<path d="M3876 4825 c4 -8 8 -15 10 -15 2 0 4 7 4 15 0 8 -4 15 -10 15 -5 0
-7 -7 -4 -15z"/>
<path d="M4399 4798 c-10 -7 -6 -8 15 -3 27 6 28 5 15 -11 -13 -16 -12 -16 14
0 15 10 27 19 27 21 0 7 -59 2 -71 -7z"/>
<path d="M4360 4789 c0 -5 5 -7 10 -4 6 3 10 8 10 11 0 2 -4 4 -10 4 -5 0 -10
-5 -10 -11z"/>
<path d="M4340 4767 c0 -4 -11 -12 -25 -19 -13 -6 -22 -16 -18 -21 4 -6 0 -8
-11 -4 -9 4 -14 3 -11 -2 3 -5 0 -11 -7 -14 -7 -2 -2 -2 12 0 24 3 24 3 6 -12
-11 -8 -15 -15 -9 -15 7 0 26 17 43 38 17 20 28 28 24 17 -7 -17 -6 -18 8 -5
9 8 14 17 12 19 -2 2 3 9 11 15 13 9 11 11 -10 11 -14 0 -25 -3 -25 -8z"/>
<path d="M4778 4766 c-10 -7 -18 -19 -18 -27 1 -10 4 -9 14 3 7 10 17 14 21
10 5 -4 4 -1 0 7 -6 11 -4 13 9 8 10 -4 15 -3 11 3 -8 13 -16 12 -37 -4z"/>
<path d="M8730 4761 c13 -9 13 -11 0 -11 -11 0 -10 -3 4 -11 14 -9 22 -8 33 3
11 11 11 15 1 15 -7 0 -22 4 -33 8 -16 5 -17 5 -5 -4z"/>
<path d="M3932 4750 c-45 -11 -50 -18 -10 -16 18 2 41 -1 50 -6 10 -5 19 -4
23 2 4 6 3 10 -2 9 -4 -1 -15 -1 -23 0 -13 1 -13 2 0 11 17 11 9 11 -38 0z"/>
<path d="M4724 4750 c-27 -11 -38 -27 -19 -27 8 0 12 4 9 9 -3 4 2 8 11 8 9 0
13 -4 10 -10 -3 -5 -1 -10 4 -10 6 0 11 9 11 20 0 11 -1 20 -2 19 -2 0 -13 -4
-24 -9z"/>
<path d="M3853 4724 c-5 -13 -7 -13 -14 -2 -7 11 -9 11 -9 -1 0 -11 -3 -11
-15 -1 -10 9 -15 9 -15 1 0 -6 5 -11 10 -11 20 0 10 -19 -12 -23 -21 -4 -21
-4 -2 -6 11 0 36 13 54 29 18 17 28 30 21 30 -6 0 -14 -7 -18 -16z"/>
<path d="M8749 4718 c-6 -15 -4 -108 2 -108 4 0 6 9 4 20 -2 11 0 22 5 25 6 3
6 15 0 29 -5 13 -6 27 -3 30 4 3 3 6 0 6 -4 0 -7 -1 -8 -2z"/>
<path d="M3944 4678 c-19 -23 -19 -23 1 -6 12 9 33 15 52 13 18 -1 31 0 29 4
-11 17 -64 10 -82 -11z"/>
<path d="M4563 4676 c0 -8 6 -12 12 -10 6 3 12 -2 12 -11 0 -9 -16 -20 -39
-27 -39 -12 -66 -34 -54 -45 3 -4 12 2 20 12 12 17 16 18 32 5 17 -14 18 -13
6 1 -10 14 -9 17 9 22 25 7 63 -15 51 -29 -4 -5 -3 -5 2 -1 16 13 15 35 -1 33
-9 0 -17 7 -18 16 -2 13 3 16 24 13 18 -2 28 2 28 10 0 8 -7 11 -15 7 -11 -4
-13 -1 -7 7 6 10 3 11 -13 2 -14 -7 -23 -8 -27 -1 -9 15 -22 12 -22 -4z"/>
<path d="M3810 4669 c-22 -6 -11 -14 14 -10 4 1 13 -3 20 -8 7 -6 20 -5 36 4
l25 14 -30 -3 c-16 -2 -32 0 -35 3 -3 4 -16 4 -30 0z"/>
<path d="M8717 4668 c-2 -7 -4 -36 -4 -64 0 -29 -4 -58 -9 -65 -6 -11 -5 -11
10 0 15 13 17 12 12 -12 -3 -15 -1 -27 4 -27 18 0 21 21 8 43 -9 13 -14 45
-13 80 2 59 0 66 -8 45z"/>
<path d="M3971 4659 c16 -10 66 -12 56 -3 -4 4 -21 8 -38 9 -22 2 -27 0 -18
-6z"/>
<path d="M4460 4663 c0 -6 -8 -10 -17 -8 -10 1 -24 -2 -31 -8 -7 -6 -40 -11
-74 -13 -34 -2 -64 -8 -69 -15 -4 -7 -18 -13 -31 -15 -12 -1 -26 -3 -30 -3
-15 -2 -8 -31 7 -31 8 0 15 5 15 11 0 5 5 7 10 4 6 -3 10 -1 10 4 0 6 5 11 11
11 5 0 7 -5 3 -11 -4 -8 1 -9 17 -3 13 4 30 7 37 7 6 0 12 3 12 7 0 11 51 31
62 24 6 -4 17 1 23 10 11 14 13 15 19 1 8 -21 26 -19 26 3 0 14 2 15 10 2 5
-8 10 -10 10 -5 0 6 -5 17 -10 25 -5 8 -10 10 -10 3z m-160 -51 c0 -5 -7 -9
-15 -9 -8 0 -12 4 -9 9 3 4 9 8 15 8 5 0 9 -4 9 -8z"/>
<path d="M4487 4659 c7 -7 15 -10 18 -7 3 3 -2 9 -12 12 -14 6 -15 5 -6 -5z"/>
<path d="M4040 4644 c0 -11 -6 -13 -19 -9 -23 7 -37 -10 -15 -19 19 -7 31 -1
44 25 7 13 7 19 0 19 -5 0 -10 -7 -10 -16z"/>
<path d="M4183 4647 c-4 -8 -16 -17 -26 -20 -11 -4 -21 -16 -24 -26 -3 -11
-11 -17 -18 -15 -7 3 -16 0 -21 -7 -4 -7 -3 -10 4 -5 6 3 14 1 18 -5 4 -8 3
-9 -4 -5 -7 4 -12 3 -12 -3 0 -5 9 -9 19 -8 11 0 17 7 14 14 -3 8 2 11 17 8
14 -3 20 0 17 8 -3 7 -9 11 -15 10 -6 -2 -9 4 -6 12 4 8 12 15 20 15 7 0 17 6
21 14 4 7 15 16 23 19 12 4 12 6 -2 6 -9 1 -21 -5 -25 -12z"/>
<path d="M5123 4643 c-7 -2 -13 -9 -13 -14 0 -6 5 -7 12 -3 7 5 9 2 6 -8 -4
-8 0 -15 8 -15 7 0 11 4 8 9 -3 4 -1 8 5 8 5 0 12 -6 14 -12 4 -10 6 -10 6 0
1 8 -8 16 -19 19 -11 3 -17 9 -14 14 6 10 5 10 -13 2z"/>
<path d="M3945 4630 c-16 -7 -17 -9 -3 -9 9 -1 20 4 23 9 7 11 7 11 -20 0z"/>
<path d="M5070 4617 c33 -21 44 -19 35 5 -3 8 -19 15 -36 15 l-30 0 31 -20z"/>
<path d="M5205 4620 c-4 -6 -11 -8 -16 -5 -5 4 -9 3 -9 -1 0 -9 32 -33 45 -33
6 0 2 4 -8 10 -14 8 -16 14 -6 25 6 8 9 14 6 14 -3 0 -9 -5 -12 -10z"/>
<path d="M3880 4609 c0 -5 5 -7 12 -3 8 5 9 2 5 -9 -3 -9 -3 -18 1 -21 4 -2 9
6 10 20 1 15 -3 24 -13 24 -8 0 -15 -5 -15 -11z"/>
<path d="M4178 4612 c-15 -6 -15 -9 -1 -27 12 -16 14 -16 10 -3 -4 11 0 21 11
27 19 12 6 13 -20 3z"/>
<path d="M5033 4613 c5 -8 -2 -15 -19 -19 -15 -4 -39 -13 -53 -20 -13 -7 -28
-11 -33 -8 -4 3 -8 0 -8 -6 0 -8 9 -10 27 -5 23 5 25 4 14 -9 -11 -13 -9 -13
13 -3 29 13 36 30 9 20 -15 -5 -16 -3 -6 7 10 11 16 10 34 -5 11 -11 19 -14
17 -8 -2 6 5 18 15 25 18 13 18 15 1 29 -10 8 -15 9 -11 2z"/>
<path d="M5237 4607 c4 -7 8 -15 9 -19 1 -5 2 -11 3 -15 1 -9 21 18 21 28 0 4
-9 9 -20 12 -14 3 -18 1 -13 -6z"/>
<path d="M3936 4598 c3 -4 9 -8 15 -8 5 0 9 4 9 8 0 5 -7 9 -15 9 -8 0 -12 -4
-9 -9z"/>
<path d="M3975 4601 c-3 -5 -2 -12 3 -15 5 -3 9 1 9 9 0 17 -3 19 -12 6z"/>
<path d="M4054 4590 c-22 -9 -43 -32 -27 -29 21 4 25 -2 9 -14 -16 -11 -14
-13 11 -11 15 1 31 3 35 3 4 1 6 15 6 31 -1 32 -2 33 -34 20z m18 -25 c-4 -24
-5 -24 -17 -8 -11 15 -11 19 3 25 9 4 18 7 18 7 1 1 -1 -10 -4 -24z"/>
<path d="M4333 4584 c-21 -21 14 -30 45 -11 7 5 12 3 12 -5 0 -10 2 -10 9 1 7
11 9 11 14 0 3 -8 5 -5 4 6 -1 16 -8 20 -36 21 -20 1 -42 -4 -48 -12z m37 -2
c0 -5 -7 -9 -15 -9 -8 0 -12 4 -9 9 3 4 9 8 15 8 5 0 9 -4 9 -8z"/>
<path d="M4430 4591 c0 -6 4 -13 10 -16 6 -3 7 1 4 9 -7 18 -14 21 -14 7z"/>
<path d="M5273 4584 c-3 -8 0 -21 6 -27 9 -9 12 -9 9 0 -2 6 2 11 7 12 6 1 10
-3 10 -8 0 -5 3 -13 7 -17 4 -3 6 3 3 14 -3 16 1 20 19 18 12 -1 27 -6 34 -10
7 -4 12 -2 12 4 0 6 5 8 12 4 6 -4 8 -3 5 3 -4 6 -20 9 -36 7 -17 -2 -33 1
-37 7 -4 8 -9 7 -15 -2 -6 -10 -9 -11 -9 -1 0 17 -19 15 -27 -4z"/>
<path d="M4290 4570 c-13 -8 -12 -10 3 -10 9 0 17 5 17 10 0 12 -1 12 -20 0z"/>
<path d="M5456 4568 c3 -5 10 -6 15 -3 13 9 11 12 -6 12 -8 0 -12 -4 -9 -9z"/>
<path d="M4897 4554 c-3 -3 -3 -13 0 -22 5 -11 3 -13 -7 -7 -9 5 -11 4 -6 -3
5 -9 12 -8 26 0 11 7 16 15 12 18 -4 3 -10 9 -13 13 -3 4 -8 4 -12 1z"/>
<path d="M5330 4556 c0 -2 7 -7 16 -10 8 -3 12 -2 9 4 -6 10 -25 14 -25 6z"/>
<path d="M5390 4549 c0 -6 -5 -7 -12 -3 -7 4 -8 3 -4 -5 5 -8 12 -9 20 -2 7 6
17 6 26 1 22 -14 33 -12 19 3 -15 16 -49 20 -49 6z"/>
<path d="M5477 4553 c-10 -3 -16 -10 -14 -16 5 -16 49 -16 65 0 7 7 9 13 4 13
-6 0 -16 2 -24 4 -7 2 -21 2 -31 -1z"/>
<path d="M5555 4543 c5 -19 3 -22 -12 -16 -10 3 -14 2 -10 -2 10 -12 117 -23
117 -13 0 7 -15 12 -32 9 -4 0 -5 5 -2 12 3 9 -5 12 -23 11 -16 0 -32 4 -36
10 -5 6 -5 1 -2 -11z"/>
<path d="M5654 4521 c16 -11 36 -17 45 -13 20 7 46 32 34 32 -5 0 -14 -5 -20
-11 -7 -7 -17 -8 -25 -3 -7 5 -24 10 -38 12 -25 3 -25 3 4 -17z"/>
<path d="M5758 4533 c7 -3 16 -2 19 1 4 3 -2 6 -13 5 -11 0 -14 -3 -6 -6z"/>
<path d="M5798 4533 c6 -2 18 -2 25 0 6 3 1 5 -13 5 -14 0 -19 -2 -12 -5z"/>
<path d="M6031 4521 c-8 -5 -41 -7 -73 -5 -34 3 -58 0 -58 -6 0 -5 7 -7 15 -4
8 4 23 3 33 -2 9 -4 35 -8 58 -9 22 -1 46 -5 52 -9 8 -5 10 -2 6 8 -3 9 -11
13 -17 9 -6 -3 -7 -1 -3 6 5 7 12 9 19 3 18 -14 46 -11 40 5 -3 7 -9 13 -15
13 -5 0 -6 -4 -3 -10 3 -5 1 -10 -4 -10 -6 0 -11 5 -11 10 0 12 -20 13 -39 1z"/>
<path d="M3935 4510 c-4 -6 -12 -7 -18 -4 -7 4 -9 3 -4 -1 4 -5 17 -10 29 -12
12 -2 32 -10 45 -18 28 -19 45 2 18 22 -15 10 -20 10 -27 0 -6 -9 -8 -9 -8 0
0 7 -7 10 -17 6 -11 -4 -14 -3 -9 5 4 7 5 12 2 12 -3 0 -8 -5 -11 -10z"/>
<path d="M4830 4516 c0 -2 9 -6 20 -9 11 -3 18 -1 14 4 -5 9 -34 13 -34 5z"/>
<path d="M5756 4512 c-3 -5 1 -9 9 -9 8 0 12 4 9 9 -3 4 -7 8 -9 8 -2 0 -6 -4
-9 -8z"/>
<path d="M5843 4503 c0 -8 6 -9 17 -3 10 5 20 6 24 3 3 -3 6 -2 6 4 0 6 -10
10 -23 9 -13 0 -24 -6 -24 -13z"/>
<path d="M6157 4509 c7 -7 15 -10 18 -7 3 3 -2 9 -12 12 -14 6 -15 5 -6 -5z"/>
<path d="M4773 4497 c3 -9 -2 -13 -16 -12 -19 2 -63 -19 -77 -35 -3 -4 -14
-10 -25 -13 -20 -7 -20 -7 -1 8 27 20 16 19 -35 -5 l-44 -21 48 5 c27 3 54 9
61 15 7 6 17 7 21 3 5 -4 4 -1 0 7 -6 11 -4 13 8 8 10 -4 16 -2 14 5 -1 6 11
12 28 12 20 1 31 7 33 19 2 9 -2 17 -8 17 -7 0 -10 -6 -7 -13z"/>
<path d="M6216 4502 c6 -4 13 -14 16 -23 4 -9 16 -19 27 -22 12 -3 19 -1 15 4
-3 5 -13 9 -22 10 -14 0 -13 2 3 8 11 5 25 6 30 3 6 -4 19 -8 30 -9 16 -2 17
-1 5 6 -8 5 -17 8 -21 5 -4 -2 -11 0 -14 6 -4 6 -15 8 -25 5 -10 -3 -21 -1
-25 5 -3 5 -12 10 -18 10 -8 0 -9 -3 -1 -8z"/>
<path d="M4113 4492 c-28 -4 -30 -17 -3 -19 11 -1 20 4 20 10 0 9 2 9 8 0 7
-10 12 -10 25 0 16 11 15 12 -5 12 -13 0 -33 -1 -45 -3z"/>
<path d="M4023 4467 c-9 -20 -8 -23 11 -25 16 -1 18 1 6 8 -13 8 -12 10 2 10
11 0 15 5 12 15 -9 21 -19 19 -31 -8z"/>
<path d="M4066 4477 c3 -10 9 -15 12 -12 3 3 0 11 -7 18 -10 9 -11 8 -5 -6z"/>
<path d="M6125 4480 c-3 -6 1 -7 9 -4 18 7 21 14 7 14 -6 0 -13 -4 -16 -10z"/>
<path d="M6152 4474 c-11 -12 -8 -14 24 -12 21 2 39 9 40 16 1 7 0 8 -3 2 -2
-5 -9 -10 -14 -10 -6 0 -8 4 -5 8 9 14 -29 11 -42 -4z"/>
<path d="M6410 4478 c0 -21 -29 -24 -50 -5 -12 10 -12 9 -2 -4 6 -9 9 -18 7
-21 -3 -3 6 -3 21 0 19 3 25 1 20 -6 -5 -8 -1 -10 10 -5 13 5 15 3 9 -7 -5 -8
-4 -11 2 -7 15 9 53 -21 47 -38 -5 -11 -11 -12 -25 -4 -28 15 -25 -16 3 -35
20 -14 18 -21 -5 -17 -5 1 -6 -3 -2 -8 9 -15 34 -2 34 17 -1 51 10 64 53 68
18 2 46 6 62 10 21 5 27 4 22 -5 -4 -6 -2 -11 4 -11 6 0 9 -4 5 -9 -3 -5 -1
-12 4 -16 6 -3 8 3 6 15 -5 26 12 26 20 0 3 -11 11 -20 16 -20 6 0 7 5 3 11
-4 7 -2 10 5 8 7 -3 11 -8 9 -12 -4 -9 65 -56 75 -50 4 2 7 10 7 16 0 8 -3 8
-9 -2 -7 -10 -10 -10 -16 -1 -10 16 11 29 39 24 20 -4 -53 23 -84 31 -8 2 -33
11 -54 20 -24 10 -49 14 -65 9 -48 -13 -102 -14 -95 -2 4 6 3 8 -4 4 -6 -3
-13 -2 -17 4 -3 5 1 10 9 10 29 0 24 15 -5 16 -22 1 -29 -2 -25 -12 4 -11 2
-11 -14 -2 -11 7 -15 15 -10 18 5 3 5 11 0 20 -8 13 -10 12 -10 -2z m317 -113
c0 -8 -4 -12 -9 -9 -5 3 -6 10 -3 15 9 13 12 11 12 -6z m-262 -13 c-3 -3 -11
0 -18 7 -9 10 -8 11 6 5 10 -3 15 -9 12 -12z"/>
<path d="M8709 4485 c-1 -3 -3 -9 -4 -15 -1 -5 -3 -15 -4 -21 0 -5 -5 -8 -9
-5 -5 3 -9 0 -9 -7 0 -7 -4 -25 -8 -42 -5 -23 -4 -26 4 -15 9 13 11 13 11 -1
0 -22 -11 -31 -25 -19 -8 7 -12 5 -12 -5 0 -8 5 -11 10 -8 6 4 8 0 5 -9 -5
-13 -3 -14 17 -4 14 6 20 12 15 14 -6 2 -6 10 0 21 5 10 6 21 2 25 -3 4 0 11
8 16 10 7 11 10 3 10 -7 0 -13 4 -13 10 0 5 8 7 18 4 13 -5 14 -4 3 4 -7 5
-10 15 -6 21 5 9 11 9 23 -1 15 -11 15 -11 5 3 -7 9 -10 19 -6 22 3 4 -1 7
-10 7 -9 0 -18 -2 -18 -5z"/>
<path d="M6510 4440 c0 -5 5 -10 11 -10 5 0 7 5 4 10 -3 6 -8 10 -11 10 -2 0
-4 -4 -4 -10z"/>
<path d="M4134 4414 c-19 -15 -19 -16 1 -9 11 4 26 8 33 8 6 0 12 4 12 9 0 13
-25 9 -46 -8z"/>
<path d="M4018 4414 c6 -3 9 -11 6 -16 -4 -6 -2 -8 4 -4 5 3 12 0 15 -6 3 -10
8 -10 17 -2 14 14 -2 27 -35 31 -11 1 -14 -1 -7 -3z"/>
<path d="M4071 4404 c8 -10 15 -12 17 -5 2 6 9 8 15 4 7 -3 9 -2 4 2 -4 5 -17
10 -29 12 -18 3 -19 1 -7 -13z"/>
<path d="M6445 4400 c3 -5 8 -10 11 -10 2 0 4 5 4 10 0 6 -5 10 -11 10 -5 0
-7 -4 -4 -10z"/>
<path d="M4188 4378 c5 -19 27 -24 37 -8 4 6 -1 7 -11 3 -13 -5 -16 -2 -12 9
4 8 1 15 -7 15 -7 0 -10 -8 -7 -19z"/>
<path d="M4410 4393 c-8 -3 -19 -12 -23 -20 -5 -7 -13 -10 -19 -7 -7 4 -8 2
-4 -5 6 -8 12 -9 20 -2 7 6 17 7 21 3 5 -4 4 -1 0 7 -6 10 -4 13 7 9 9 -4 15
0 15 8 0 8 -1 14 -1 13 -1 0 -8 -3 -16 -6z"/>
<path d="M4155 4381 c-3 -6 -12 -8 -19 -5 -7 3 -16 -2 -20 -12 -5 -13 -3 -14
6 -7 7 6 21 9 30 8 20 -4 33 11 19 19 -5 4 -12 2 -16 -3z"/>
<path d="M4488 4383 c7 -3 16 -2 19 1 4 3 -2 6 -13 5 -11 0 -14 -3 -6 -6z"/>
<path d="M4014 4361 c4 -5 3 -11 -1 -14 -5 -2 -3 -2 4 -1 6 2 14 -2 16 -9 3
-7 4 -2 4 11 -1 12 -7 22 -15 22 -7 0 -11 -4 -8 -9z"/>
<path d="M4073 4350 c-13 -5 -23 -14 -23 -19 0 -5 -3 -18 -6 -28 -5 -15 -3
-15 7 2 6 11 21 28 33 37 23 20 21 21 -11 8z"/>
<path d="M4336 4341 c-3 -5 -14 -7 -25 -4 -10 2 -25 -3 -35 -12 -17 -17 -13
-36 7 -34 9 0 8 2 -1 6 -6 2 -10 9 -7 13 3 5 12 7 20 4 8 -4 12 -10 9 -15 -3
-5 -1 -9 5 -9 5 0 12 9 16 19 3 11 14 21 23 23 12 2 13 6 5 11 -6 4 -14 3 -17
-2z"/>
<path d="M4170 4320 c-8 -5 -10 -10 -5 -10 6 0 3 -5 -5 -10 -9 -6 -10 -10 -3
-10 7 0 17 8 22 18 8 14 11 14 12 2 1 -8 1 -19 0 -23 -1 -4 7 -4 16 1 10 5 24
7 31 5 6 -3 12 0 12 7 0 6 -5 8 -12 4 -8 -5 -9 -2 -5 9 4 12 1 17 -9 17 -10 0
-14 -6 -10 -15 7 -19 -4 -19 -18 0 -8 10 -15 12 -26 5z"/>
<path d="M6784 4316 c1 -8 5 -18 8 -22 4 -3 5 1 4 10 -1 8 -5 18 -8 22 -4 3
-5 -1 -4 -10z"/>
<path d="M8643 4300 c3 -11 1 -23 -4 -26 -5 -3 -7 -10 -4 -15 4 -5 2 -9 -4 -9
-5 0 -15 8 -20 18 -6 9 -11 12 -11 5 0 -6 4 -14 9 -17 5 -3 8 -26 6 -51 -2
-43 16 -77 32 -61 3 3 1 6 -4 6 -6 0 -10 11 -8 25 1 14 -3 25 -9 25 -6 0 -4 5
4 10 11 7 11 10 2 10 -7 0 -10 5 -7 10 4 6 11 8 16 5 8 -6 10 0 12 43 1 9 5
20 10 23 5 3 1 9 -8 13 -14 5 -16 2 -12 -14z"/>
<path d="M8682 4315 c4 -4 3 -14 -4 -22 -6 -7 -9 -15 -7 -18 3 -2 10 4 17 15
9 15 9 21 -1 26 -6 4 -9 4 -5 -1z"/>
<path d="M6434 4304 c8 -11 -19 -32 -34 -26 -13 5 -13 4 0 -10 8 -9 17 -12 18
-7 2 5 10 9 17 9 13 0 15 25 2 35 -4 3 -5 2 -3 -1z"/>
<path d="M6810 4296 c0 -2 8 -10 18 -17 15 -13 16 -12 3 4 -13 16 -21 21 -21
13z"/>
<path d="M4080 4275 c-7 -9 -8 -15 -2 -15 5 0 12 7 16 15 3 8 4 15 2 15 -2 0
-9 -7 -16 -15z"/>
<path d="M4119 4271 c11 -7 11 -9 0 -13 -8 -3 5 -4 27 -4 31 0 40 4 36 14 -3
10 -7 11 -12 2 -6 -9 -13 -9 -28 -1 -24 13 -43 15 -23 2z"/>
<path d="M6375 4251 c-3 -6 -14 -8 -25 -6 -11 2 -20 0 -20 -4 0 -14 59 -7 65
6 5 15 -11 18 -20 4z"/>
<path d="M6876 4251 c-4 -5 4 -7 16 -3 18 4 20 2 14 -14 -5 -14 -4 -16 5 -7 6
6 8 16 5 22 -9 13 -33 14 -40 2z"/>
<path d="M6957 4252 c6 -4 13 -14 15 -22 8 -35 88 -75 103 -51 3 6 13 7 21 4
13 -5 13 -8 2 -15 -10 -8 -9 -9 3 -5 9 3 21 2 26 -1 5 -4 -2 3 -15 16 -13 12
-27 20 -32 17 -5 -3 -11 -1 -14 4 -3 4 -20 7 -37 5 -27 -3 -30 -2 -19 11 11
13 10 14 -5 9 -14 -6 -16 -4 -10 6 5 8 4 11 -2 7 -6 -4 -13 0 -17 8 -3 8 -11
15 -18 15 -10 0 -10 -2 -1 -8z m103 -62 c0 -5 -5 -10 -11 -10 -5 0 -7 5 -4 10
3 6 8 10 11 10 2 0 4 -4 4 -10z"/>
<path d="M7460 4240 c-8 -15 -8 -18 3 -14 8 3 14 11 14 19 0 20 -4 19 -17 -5z"/>
<path d="M6793 4235 c-10 -10 -9 -14 4 -19 14 -6 14 -9 -3 -27 -16 -18 -16
-19 -1 -13 9 3 17 10 17 15 0 5 3 8 8 7 4 -2 8 2 10 7 2 6 10 14 18 18 16 9
19 27 3 27 -5 0 -7 -4 -4 -10 3 -5 -3 -10 -14 -10 -10 0 -21 4 -23 9 -1 5 -8
3 -15 -4z m28 -22 c13 -16 12 -17 -3 -4 -10 7 -18 15 -18 17 0 8 8 3 21 -13z"/>
<path d="M6940 4230 c-9 -6 -10 -10 -3 -10 6 0 15 5 18 10 8 12 4 12 -15 0z"/>
<path d="M6284 4214 c3 -18 16 -31 16 -15 0 9 9 12 25 9 14 -3 25 -1 25 3 0 5
-8 9 -17 10 -10 0 -25 2 -34 4 -10 2 -16 -3 -15 -11z"/>
<path d="M6245 4211 c-3 -6 -11 -8 -17 -5 -7 4 -8 2 -4 -4 4 -7 2 -12 -3 -12
-18 0 -26 5 -23 13 1 5 -2 6 -8 2 -6 -3 -8 -10 -6 -14 3 -4 1 -13 -3 -20 -6
-10 -12 -9 -25 4 -10 10 -16 12 -16 5 0 -7 -8 -10 -19 -7 -12 3 -27 -3 -37
-14 -9 -10 -21 -16 -26 -13 -4 3 -7 0 -6 -7 2 -6 -3 -14 -11 -17 -8 -3 -11 0
-7 7 5 7 1 9 -9 5 -9 -4 -14 -9 -11 -12 9 -9 56 -11 51 -2 -3 5 -1 11 5 15 5
3 10 1 10 -5 0 -7 12 -4 30 7 17 9 30 21 30 26 0 5 7 4 15 -3 12 -10 18 -10
30 0 8 6 20 8 26 4 8 -5 9 -3 4 6 -6 10 -2 12 18 8 14 -3 32 -1 39 4 10 7 9 8
-4 4 -20 -6 -35 10 -16 17 7 2 10 7 7 11 -4 4 -10 2 -14 -3z m-130 -62 c-4 -5
-12 -9 -18 -8 -9 0 -8 2 1 6 6 2 9 10 6 15 -4 7 -2 8 5 4 6 -4 9 -12 6 -17z"/>
<path d="M7469 4218 c-6 -21 -5 -38 1 -38 5 0 8 9 7 20 -1 17 -5 26 -8 18z"/>
<path d="M6761 4201 c-7 -5 -10 -14 -6 -20 4 -8 -1 -10 -19 -7 -14 3 -29 0
-32 -6 -4 -7 -2 -8 4 -4 7 4 12 0 13 -11 0 -14 2 -15 7 -3 4 8 14 15 22 15 8
0 15 6 15 13 0 7 7 17 15 22 8 5 11 10 5 10 -5 0 -16 -4 -24 -9z"/>
<path d="M7461 4163 c-1 -6 4 -15 9 -18 6 -3 10 -11 10 -16 0 -6 -5 -7 -12 -3
-7 4 -8 3 -4 -4 9 -15 -6 -16 -22 -2 -8 7 -9 7 -3 -1 5 -6 7 -18 4 -25 -8 -21
24 -7 33 14 11 24 13 52 3 47 -4 -3 -10 1 -12 7 -4 9 -6 10 -6 1z"/>
<path d="M7164 4153 c3 -4 1 -12 -6 -20 -6 -8 -7 -13 -2 -12 5 1 11 0 14 -1
23 -8 38 -5 48 11 8 12 8 19 2 19 -5 0 -10 -4 -10 -10 0 -5 -4 -10 -10 -10 -5
0 -9 5 -7 11 1 6 -6 13 -16 14 -11 2 -16 1 -13 -2z"/>
<path d="M7110 4140 c8 -5 20 -10 25 -10 6 0 3 5 -5 10 -8 5 -19 10 -25 10 -5
0 -3 -5 5 -10z"/>
<path d="M5980 4120 c-9 -6 -10 -10 -3 -10 6 0 15 5 18 10 8 12 4 12 -15 0z"/>
<path d="M7226 4122 c-3 -4 4 -9 15 -9 23 -2 25 3 4 10 -8 4 -16 3 -19 -1z"/>
<path d="M7275 4119 c-10 -15 -4 -18 38 -23 24 -3 37 -1 37 6 0 6 -3 9 -6 5
-4 -3 -19 0 -35 8 -19 10 -30 12 -34 4z"/>
<path d="M7392 4117 c-8 -9 -8 -17 0 -27 8 -13 9 -12 5 2 -3 9 -1 19 6 21 7 2
9 7 6 11 -3 4 -11 1 -17 -7z"/>
<path d="M8643 4115 c0 -8 4 -12 9 -9 4 3 8 9 8 15 0 5 -4 9 -8 9 -5 0 -9 -7
-9 -15z"/>
<path d="M6710 4109 c0 -5 5 -7 10 -4 6 3 10 8 10 11 0 2 -4 4 -10 4 -5 0 -10
-5 -10 -11z"/>
<path d="M5947 4103 c-10 -9 -9 -23 1 -23 5 0 9 7 9 15 0 17 -1 18 -10 8z"/>
<path d="M6000 4100 c-9 -6 -10 -10 -3 -10 6 0 15 5 18 10 8 12 4 12 -15 0z"/>
<path d="M6652 4093 c-6 -2 -10 -9 -6 -14 3 -5 -1 -9 -8 -10 -33 -2 -53 -9
-64 -23 -6 -8 -23 -20 -38 -26 -17 -6 -24 -14 -20 -22 5 -7 2 -9 -9 -5 -12 4
-14 2 -10 -10 4 -11 2 -14 -5 -9 -7 4 -12 5 -12 2 0 -2 -3 -13 -7 -23 -6 -15
-4 -16 9 -6 8 7 18 9 22 5 4 -4 6 0 4 8 -2 10 4 14 17 13 11 -1 15 0 8 3 -7 3
-9 12 -6 20 4 12 8 13 14 3 6 -10 11 -10 22 -1 7 7 17 9 20 5 4 -3 7 -1 7 5 0
7 3 11 8 11 19 -3 23 2 11 17 -12 15 -11 16 9 10 16 -5 24 -3 28 8 3 9 10 13
15 10 5 -3 9 0 9 6 0 6 5 8 13 4 8 -5 8 -2 -2 9 -7 9 -14 17 -15 16 0 0 -7 -3
-14 -6z m-77 -73 c-10 -11 -20 -18 -22 -16 -6 5 30 44 36 39 2 -1 -4 -12 -14
-23z"/>
<path d="M6064 4073 c-18 -18 -81 -24 -101 -9 -8 5 -13 4 -13 -2 0 -18 32 -31
56 -22 12 5 25 6 28 3 3 -3 13 0 22 8 9 7 29 12 45 11 16 -1 29 3 29 8 0 6 5
8 10 5 6 -3 10 -1 10 4 0 6 -7 11 -15 11 -8 0 -15 -5 -15 -12 0 -9 -3 -9 -12
0 -16 16 -23 15 -44 -5z"/>
<path d="M8667 4073 c-9 -19 0 -36 21 -44 17 -6 22 -5 22 7 0 9 -9 18 -21 21
-16 4 -17 8 -7 14 9 6 9 9 1 9 -6 0 -14 -3 -16 -7z"/>
<path d="M7420 4055 c0 -24 -2 -29 -19 -43 -14 -11 -13 -11 7 -2 12 6 20 15
17 21 -4 5 -2 9 3 9 5 0 9 7 9 15 0 8 -4 15 -9 15 -4 0 -8 -7 -8 -15z"/>
<path d="M6094 4029 c-3 -6 -14 -9 -24 -6 -13 3 -17 0 -13 -9 6 -15 16 -18 26
-7 4 3 19 8 35 10 47 5 51 6 46 15 -3 4 -14 4 -24 -2 -25 -13 -51 -13 -30 0 9
6 10 10 3 10 -6 0 -15 -5 -19 -11z"/>
<path d="M8724 3995 c1 -13 12 -34 24 -45 12 -12 22 -27 22 -35 0 -17 16 -20
25 -5 3 6 -1 13 -9 16 -9 3 -14 10 -11 14 3 4 -2 11 -11 14 -8 3 -12 10 -9 16
4 6 -1 7 -12 3 -14 -5 -16 -3 -6 7 6 7 9 19 6 26 -8 23 -20 16 -19 -11z"/>
<path d="M5955 3989 c-11 -16 -1 -19 13 -3 7 8 8 14 3 14 -5 0 -13 -5 -16 -11z"/>
<path d="M5982 3984 c-9 -10 -10 -14 -1 -14 8 0 6 -7 -4 -18 -14 -15 -15 -19
-2 -19 8 0 12 4 9 9 -8 12 21 10 51 -4 21 -9 28 -9 34 1 5 7 12 12 17 11 5 -1
10 3 12 9 4 12 -11 15 -21 4 -13 -12 -55 -11 -74 2 -17 13 -17 14 5 10 22 -4
30 9 12 20 -5 3 -10 0 -10 -7 0 -9 -2 -10 -8 -2 -5 9 -11 8 -20 -2z"/>
<path d="M8337 3987 c2 -4 13 -5 24 -2 12 4 19 2 17 -5 -2 -7 5 -14 15 -15 17
-3 18 -2 2 15 -15 17 -68 24 -58 7z"/>
<path d="M7324 3975 c-10 -24 0 -32 18 -14 14 15 14 18 2 23 -8 3 -17 -1 -20
-9z"/>
<path d="M7380 3979 c0 -5 5 -7 10 -4 6 3 10 8 10 11 0 2 -4 4 -10 4 -5 0 -10
-5 -10 -11z"/>
<path d="M6120 3970 c-8 -5 -12 -12 -9 -15 4 -3 12 1 19 10 14 17 11 19 -10 5z"/>
<path d="M6376 3971 c-2 -3 9 -7 25 -8 15 -1 30 1 33 5 2 4 -9 8 -25 8 -16 1
-31 -1 -33 -5z"/>
<path d="M6450 3965 c-8 -9 -8 -15 -2 -15 12 0 26 19 19 26 -2 2 -10 -2 -17
-11z"/>
<path d="M8240 3968 c-12 -8 -12 -9 3 -4 11 3 16 2 12 -4 -3 -6 -13 -10 -21
-10 -8 0 -14 -8 -13 -17 0 -11 3 -13 6 -5 2 6 13 12 23 12 24 0 33 15 17 28
-9 8 -17 8 -27 0z"/>
<path d="M8304 3972 c4 -3 14 -7 22 -8 9 -1 13 0 10 4 -4 3 -14 7 -22 8 -9 1
-13 0 -10 -4z"/>
<path d="M6285 3956 c-59 -18 -60 -19 -57 -34 2 -10 -1 -11 -17 -3 -14 8 -22
8 -27 -1 -4 -7 -3 -8 4 -4 11 7 16 -5 13 -29 -1 -5 12 5 27 23 16 17 35 32 42
32 9 0 7 -5 -6 -16 -16 -13 -16 -15 -1 -10 10 3 17 0 17 -8 0 -12 18 -14 40
-6 3 1 8 2 12 1 4 0 4 7 1 16 -4 11 -3 14 5 9 8 -5 10 -2 6 8 -3 9 -10 16 -16
16 -5 0 -6 5 -3 10 3 6 5 10 3 9 -2 0 -21 -6 -43 -13z m15 -27 c0 -13 4 -18
12 -13 7 5 8 3 3 -5 -5 -9 -10 -10 -18 -2 -14 14 -18 41 -6 41 5 0 9 -9 9 -21z"/>
<path d="M8444 3955 c1 -8 6 -18 11 -22 4 -4 5 -3 2 4 -4 6 -2 13 5 15 8 3 6
6 -4 10 -10 4 -15 2 -14 -7z"/>
<path d="M6390 3940 c-18 -12 -2 -12 25 0 13 6 15 9 5 9 -8 0 -22 -4 -30 -9z"/>
<path d="M8195 3940 c3 -5 8 -10 11 -10 2 0 4 5 4 10 0 6 -5 10 -11 10 -5 0
-7 -4 -4 -10z"/>
<path d="M7200 3930 c-9 -6 -10 -10 -3 -10 6 0 15 5 18 10 8 12 4 12 -15 0z"/>
<path d="M6024 3923 c3 -3 -2 -12 -10 -20 -13 -14 -13 -17 1 -33 18 -20 62
-23 72 -6 11 17 12 37 2 30 -5 -3 -7 -9 -4 -14 9 -14 -15 -23 -29 -11 -8 7
-18 10 -22 9 -20 -7 -15 18 5 28 l22 11 -21 6 c-12 3 -19 3 -16 0z"/>
<path d="M8175 3920 c-3 -5 -1 -10 4 -10 6 0 11 5 11 10 0 6 -2 10 -4 10 -3 0
-8 -4 -11 -10z"/>
<path d="M6134 3904 c-19 -15 -19 -16 1 -9 16 5 18 4 8 -6 -17 -17 -16 -26 1
-26 7 0 13 10 12 21 -1 12 3 24 9 28 7 5 7 8 -1 8 -5 0 -19 -7 -30 -16z"/>
<path d="M8524 3903 c2 -10 6 -17 10 -16 15 3 16 11 2 22 -12 10 -14 9 -12 -6z"/>
<path d="M7118 3903 c7 -3 16 -2 19 1 4 3 -2 6 -13 5 -11 0 -14 -3 -6 -6z"/>
<path d="M6245 3890 c-3 -5 1 -10 10 -10 9 0 13 5 10 10 -3 6 -8 10 -10 10 -2
0 -7 -4 -10 -10z"/>
<path d="M8138 3893 c6 -3 10 -9 6 -14 -8 -14 2 -11 14 4 8 10 6 13 -11 14
-12 0 -16 -1 -9 -4z"/>
<path d="M7050 3886 c0 -2 7 -7 16 -10 8 -3 12 -2 9 4 -6 10 -25 14 -25 6z"/>
<path d="M8780 3880 c0 -11 46 -50 57 -50 6 0 14 -6 16 -12 4 -10 6 -10 6 0 1
7 -9 17 -21 22 -13 5 -17 9 -10 9 21 1 -7 37 -29 37 -10 0 -19 -3 -19 -6z"/>
<path d="M6963 3857 c-3 -5 -13 -7 -22 -4 -10 2 -18 -1 -18 -8 0 -7 10 -10 24
-7 13 2 23 8 23 13 0 5 6 6 14 3 8 -3 16 -2 19 3 3 5 -3 9 -14 9 -11 0 -23 -4
-26 -9z"/>
<path d="M8545 3861 c-9 -15 15 -25 28 -12 9 9 7 10 -7 5 -13 -5 -17 -4 -12 4
4 7 5 12 2 12 -3 0 -7 -4 -11 -9z"/>
<path d="M8084 3847 c-6 -7 -11 -20 -11 -29 0 -15 2 -15 23 0 12 9 18 19 13
20 -5 2 -7 8 -3 13 8 13 -9 10 -22 -4z"/>
<path d="M6876 3841 c-4 -6 -14 -8 -24 -5 -15 5 -15 4 -2 -6 12 -9 11 -10 -9
-8 -14 2 -25 -3 -27 -10 -1 -7 0 -8 2 -3 3 6 12 7 20 4 8 -3 20 -1 27 5 6 6
15 11 20 11 8 1 11 11 4 17 -3 3 -8 1 -11 -5z"/>
<path d="M8585 3832 c-13 -9 -13 -31 -1 -34 5 -2 10 7 11 20 1 12 1 22 1 22
-1 0 -6 -4 -11 -8z"/>
<path d="M8043 3823 c-7 -2 -13 -12 -12 -21 0 -11 2 -12 6 -4 2 6 8 10 12 8 4
-3 8 1 8 9 0 8 -1 15 -1 14 -1 0 -7 -3 -13 -6z"/>
<path d="M8814 3808 c-5 -7 -3 -8 6 -3 10 6 12 4 7 -8 -4 -11 -1 -17 8 -17 17
0 17 2 9 24 -7 19 -20 21 -30 4z"/>
<path d="M6767 3793 c3 -7 9 -13 15 -13 5 0 7 4 4 9 -4 5 0 11 6 14 7 3 3 4
-8 4 -14 -1 -20 -6 -17 -14z"/>
<path d="M6710 3790 c-22 -13 -54 -23 -63 -21 -5 1 -6 -3 -3 -8 4 -5 2 -12 -3
-15 -5 -4 -13 -1 -16 4 -9 15 -47 -20 -41 -37 3 -7 1 -15 -4 -18 -6 -4 -10
-14 -9 -23 0 -12 4 -9 11 8 6 14 10 31 9 38 -1 7 2 12 6 11 4 -1 10 0 13 1 3
1 14 3 24 5 11 2 24 11 28 20 6 10 17 14 29 10 11 -4 19 -2 19 5 0 6 4 9 9 6
5 -4 17 -3 26 0 13 5 14 8 3 15 -16 10 -19 10 -38 -1z"/>
<path d="M8000 3791 c0 -6 4 -13 10 -16 6 -3 7 1 4 9 -7 18 -14 21 -14 7z"/>
<path d="M8607 3784 c-12 -13 -8 -24 8 -18 13 5 21 -7 13 -20 -2 -2 5 -13 15
-24 11 -12 16 -26 11 -33 -4 -8 -3 -10 4 -5 15 9 16 36 1 36 -5 0 -8 4 -5 8 7
11 -38 65 -47 56z"/>
<path d="M8866 3776 c4 -11 -1 -14 -19 -12 -22 3 -24 1 -14 -15 11 -18 12 -18
19 -1 6 15 7 15 7 0 1 -9 8 -24 17 -32 8 -9 12 -16 7 -16 -5 0 -14 5 -21 12
-8 8 -12 8 -12 1 0 -13 28 -25 40 -18 4 3 6 14 3 25 -3 11 -9 17 -14 14 -5 -3
-9 2 -9 11 0 9 5 13 11 9 8 -4 8 0 0 15 -13 24 -23 29 -15 7z"/>
<path d="M7920 3760 c0 -6 4 -9 9 -6 5 4 12 1 14 -4 3 -6 4 -5 3 2 -3 15 -26
23 -26 8z"/>
<path d="M7833 3731 c-19 -16 -20 -21 -9 -30 11 -9 16 -9 22 0 4 8 3 9 -4 5
-7 -4 -12 -3 -12 3 0 19 19 21 29 4 6 -10 11 -13 11 -6 0 6 -5 15 -10 18 -6 4
-8 11 -5 16 9 13 3 11 -22 -10z"/>
<path d="M7880 3739 c-12 -8 -10 -9 9 -4 17 5 22 4 16 -5 -5 -9 -4 -11 4 -6 6
4 9 12 6 17 -8 12 -16 11 -35 -2z"/>
<path d="M6774 3704 c-16 -8 -22 -12 -14 -11 8 2 23 -5 33 -16 14 -16 17 -17
17 -4 0 8 4 17 9 19 5 2 4 8 -3 14 -9 9 -20 8 -42 -2z"/>
<path d="M7620 3716 c0 -2 7 -9 15 -16 9 -7 15 -8 15 -2 0 5 -7 12 -15 16 -8
3 -15 4 -15 2z"/>
<path d="M7672 3711 c-11 -7 -11 -9 2 -14 10 -4 16 -1 16 8 0 17 -1 17 -18 6z"/>
<path d="M7705 3709 c-4 -6 -5 -12 -2 -15 2 -3 7 2 10 11 7 17 1 20 -8 4z"/>
<path d="M7739 3711 c8 -5 23 -8 33 -6 12 3 16 0 12 -7 -4 -7 -3 -8 4 -4 23
14 11 26 -25 26 -26 0 -34 -3 -24 -9z"/>
<path d="M7590 3702 c0 -5 7 -9 15 -9 8 0 12 4 9 9 -3 4 -9 8 -15 8 -5 0 -9
-4 -9 -8z"/>
<path d="M7510 3690 c-12 -7 -10 -9 7 -7 12 0 19 5 17 9 -6 10 -6 10 -24 -2z"/>
<path d="M7728 3693 c7 -3 16 -2 19 1 4 3 -2 6 -13 5 -11 0 -14 -3 -6 -6z"/>
<path d="M7757 3681 c-4 -17 -3 -21 5 -13 5 5 8 16 6 23 -3 8 -7 3 -11 -10z"/>
<path d="M6590 3666 c-5 -13 -15 -27 -22 -30 -7 -3 -2 -3 12 0 21 4 23 3 10
-8 -18 -16 -25 -48 -10 -48 6 0 8 5 5 10 -3 6 -1 10 5 10 6 0 9 4 5 9 -7 13
24 29 45 24 10 -3 17 1 17 10 0 12 -6 13 -24 6 -37 -14 -41 -11 -10 10 18 11
25 21 18 25 -6 4 -11 3 -11 -2 0 -6 -7 -13 -16 -16 -14 -5 -15 -4 -4 9 9 11 9
15 1 15 -6 0 -16 -11 -21 -24z"/>
<path d="M7425 3670 c-2 -3 5 -6 15 -7 11 -1 22 2 24 5 3 4 -4 8 -15 8 -11 0
-22 -3 -24 -6z"/>
<path d="M8663 3673 c-9 -3 -10 -10 -3 -22 5 -10 6 -22 2 -26 -4 -5 -1 -5 6
-1 7 4 12 2 13 -6 0 -7 2 -20 4 -28 3 -8 6 -24 8 -35 2 -11 11 -21 20 -23 22
-4 22 14 1 26 -11 6 -13 11 -5 16 8 5 3 20 -14 50 -14 23 -22 46 -18 49 7 8 4
8 -14 0z"/>
<path d="M8864 3668 c-4 -7 -3 -8 4 -4 7 4 12 1 12 -8 0 -9 6 -16 13 -16 8 0
14 7 14 15 0 8 -4 12 -9 9 -4 -3 -8 0 -8 5 0 15 -17 14 -26 -1z"/>
<path d="M6710 3666 c0 -2 7 -7 16 -10 8 -3 12 -2 9 4 -6 10 -25 14 -25 6z"/>
<path d="M6750 3660 c0 -5 5 -10 11 -10 5 0 7 5 4 10 -3 6 -8 10 -11 10 -2 0
-4 -4 -4 -10z"/>
<path d="M7341 3661 c-8 -6 -9 -11 -3 -15 6 -3 14 -1 17 5 9 14 2 20 -14 10z"/>
<path d="M7380 3660 c-13 -8 -12 -10 3 -10 9 0 17 5 17 10 0 12 -1 12 -20 0z"/>
<path d="M6676 3652 c-3 -5 1 -9 9 -9 8 0 15 4 15 9 0 4 -4 8 -9 8 -6 0 -12
-4 -15 -8z"/>
<path d="M7147 3636 c-19 -13 -38 -21 -42 -18 -4 4 -5 2 -3 -4 2 -7 -1 -12 -7
-12 -5 0 -9 5 -7 11 2 6 -6 3 -17 -7 -12 -11 -21 -14 -21 -8 0 7 -5 12 -11 12
-8 0 -7 -5 2 -16 11 -13 10 -15 -3 -12 -9 1 -17 -1 -18 -7 -3 -19 18 -16 38 5
13 15 22 18 27 10 4 -7 11 -8 18 -1 7 5 17 10 22 11 31 7 37 13 23 22 -9 6 -3
8 20 5 17 -2 32 0 32 5 0 4 -5 8 -11 8 -5 0 -7 5 -4 10 9 15 1 12 -38 -14z"/>
<path d="M7280 3650 c-9 -6 -10 -10 -3 -10 6 0 15 5 18 10 8 12 4 12 -15 0z"/>
<path d="M7215 3640 c-7 -12 -8 -12 30 -15 17 -2 24 -1 17 2 -6 3 -10 9 -6 14
3 5 -4 9 -15 9 -11 0 -23 -4 -26 -10z"/>
<path d="M6750 3619 c-19 -12 -36 -21 -37 -20 -10 5 -33 -1 -33 -9 0 -12 22
-9 32 5 5 6 8 5 8 -3 0 -10 4 -9 16 3 12 12 19 13 30 4 11 -9 15 -8 20 5 12
30 -1 36 -36 15z"/>
<path d="M8895 3620 c19 -8 19 -9 1 -9 -14 -1 -16 -4 -7 -14 6 -8 7 -18 3 -22
-4 -5 -1 -5 6 -1 7 4 10 11 7 16 -3 5 -1 11 5 15 14 9 2 25 -18 24 -14 0 -13
-2 3 -9z"/>
<path d="M6650 3580 c0 -5 5 -10 11 -10 5 0 7 5 4 10 -3 6 -8 10 -11 10 -2 0
-4 -4 -4 -10z"/>
<path d="M6824 3574 c-19 -15 -19 -15 1 -6 11 5 27 12 35 15 13 5 13 6 -1 6
-8 1 -24 -6 -35 -15z"/>
<path d="M6956 3564 c-3 -7 -13 -11 -23 -10 -10 2 -13 1 -6 -1 8 -3 7 -10 -5
-22 -9 -10 -20 -16 -23 -15 -4 2 -12 -3 -19 -11 -9 -11 -8 -14 9 -12 12 1 24
9 27 19 5 16 11 20 31 17 3 0 10 6 15 15 5 9 14 16 21 16 7 0 6 -4 -3 -10 -8
-5 -10 -10 -5 -10 6 0 17 5 25 10 11 7 11 10 2 10 -7 0 -11 4 -7 9 3 6 -4 9
-15 8 -10 -1 -22 -7 -24 -13z"/>
<path d="M8917 3565 c-4 -9 -3 -14 2 -10 5 3 11 -1 14 -7 3 -9 8 -10 15 -3 7
7 8 15 2 25 -9 13 -10 13 -10 0 0 -12 -2 -12 -9 -2 -7 11 -9 10 -14 -3z"/>
<path d="M6595 3550 c-3 -6 1 -7 9 -4 18 7 21 14 7 14 -6 0 -13 -4 -16 -10z"/>
<path d="M6727 3547 c3 -4 -1 -8 -8 -6 -30 4 -41 -1 -35 -16 3 -8 1 -15 -4
-15 -6 0 -10 6 -10 14 0 9 -10 13 -28 13 -21 -1 -28 -7 -29 -22 -2 -20 -2 -20
13 -1 20 28 19 -2 -1 -31 -10 -15 -12 -24 -4 -28 6 -4 8 -14 5 -22 -3 -8 -2
-12 3 -9 5 3 14 -1 20 -8 17 -20 104 -13 164 13 26 11 51 21 55 22 15 2 15 9
-1 9 -9 0 -16 3 -16 8 3 20 -2 23 -18 11 -9 -8 -18 -13 -20 -11 -1 1 -2 -1 -1
-5 1 -5 9 -6 18 -5 11 3 12 1 3 -8 -6 -7 -23 -12 -37 -12 -14 0 -23 -4 -21 -8
3 -4 -2 -11 -11 -14 -12 -4 -15 -2 -10 9 5 13 2 14 -17 3 -12 -6 -30 -12 -40
-13 -22 -2 -40 36 -23 47 8 5 7 8 -2 8 -7 0 -10 5 -6 11 4 7 1 10 -7 7 -8 -3
-13 -11 -11 -17 1 -6 -3 -11 -9 -11 -15 0 -6 22 14 32 9 4 25 13 35 18 9 6 35
19 57 30 l40 19 -32 -2 c-17 0 -29 -5 -26 -10z m-64 -118 c4 -16 3 -18 -9 -8
-16 13 -19 29 -5 29 5 0 11 -9 14 -21z"/>
<path d="M8935 3520 c-3 -6 1 -7 9 -4 18 7 21 14 7 14 -6 0 -13 -4 -16 -10z"/>
<path d="M8710 3510 c-9 -6 -10 -10 -3 -10 6 0 15 5 18 10 8 12 4 12 -15 0z"/>
<path d="M8948 3485 c-3 -13 -1 -22 3 -19 5 3 9 -4 9 -15 0 -12 7 -21 15 -21
8 0 15 5 15 11 0 5 -4 8 -9 5 -5 -3 -11 3 -14 14 -3 11 -1 20 4 20 4 0 6 7 3
15 -9 23 -21 18 -26 -10z"/>
<path d="M8730 3489 c0 -5 -6 -7 -12 -3 -7 4 -9 3 -5 -1 13 -15 36 -14 30 1
-6 17 -13 18 -13 3z"/>
<path d="M8726 3446 c3 -9 13 -16 21 -16 8 0 11 -5 8 -10 -4 -6 -11 -8 -16 -5
-5 4 -4 -5 3 -19 6 -14 14 -26 18 -26 3 0 5 -18 4 -40 -1 -22 3 -43 7 -46 5
-3 7 -9 4 -14 -8 -13 17 -60 32 -60 16 0 16 10 2 30 -9 12 -10 11 -5 -5 6 -19
6 -19 -9 -1 -16 21 -11 40 8 29 9 -5 9 -3 1 8 -6 8 -10 22 -8 32 2 14 -2 17
-14 13 -13 -5 -12 -2 2 9 13 10 15 15 6 15 -7 0 -11 3 -7 6 3 4 0 22 -8 40
-15 36 -15 37 -15 56 0 6 -3 8 -7 5 -3 -4 -12 -2 -20 5 -11 8 -12 7 -7 -6z
m38 -52 c3 -8 2 -12 -4 -9 -6 3 -10 10 -10 16 0 14 7 11 14 -7z"/>
<path d="M8979 3399 c5 -15 7 -29 4 -32 -2 -3 0 -14 5 -24 9 -14 10 -11 9 19
-2 21 -8 43 -15 50 -11 11 -11 8 -3 -13z"/>
<path d="M8990 3304 c0 -8 5 -12 10 -9 6 4 8 11 5 16 -9 14 -15 11 -15 -7z"/>
<path d="M9004 3199 c0 -10 2 -16 5 -14 2 3 9 0 16 -5 8 -7 12 -5 12 5 0 8 -4
15 -9 15 -5 0 -7 4 -4 8 3 5 0 9 -7 9 -7 0 -13 -8 -13 -18z"/>
<path d="M8794 3180 c7 -8 12 -20 9 -26 -2 -6 2 -14 10 -17 10 -4 13 2 12 21
-3 40 -3 41 -25 39 -16 -1 -17 -3 -6 -17z"/>
<path d="M9009 3137 c-4 -28 -1 -41 10 -47 13 -7 14 -12 4 -29 -11 -17 -10
-22 5 -30 16 -10 16 -10 0 -11 -9 0 -22 8 -27 18 -10 16 -10 16 -11 0 0 -11
10 -20 25 -24 19 -5 23 -10 15 -19 -5 -6 -6 -16 -2 -20 4 -5 0 -6 -8 -3 -11 4
-16 -1 -18 -15 -1 -17 1 -18 8 -7 5 8 13 11 17 6 4 -4 0 -14 -10 -21 -12 -8
-14 -15 -8 -20 6 -3 11 -1 11 5 0 6 4 9 9 6 5 -4 8 5 6 19 -1 14 1 28 6 30 4
3 6 14 4 25 -2 11 -1 20 3 20 4 0 8 10 9 23 0 12 -1 16 -4 10 -3 -7 -12 -13
-20 -13 -13 0 -13 3 -3 15 9 11 10 22 2 42 -6 16 -13 39 -14 53 -3 19 -5 16
-9 -13z"/>
<path d="M9035 3130 c4 -6 11 -8 16 -5 14 9 11 15 -7 15 -8 0 -12 -5 -9 -10z"/>
<path d="M8803 3112 c1 -23 18 -25 25 -2 3 7 0 10 -6 6 -6 -3 -12 0 -15 6 -3
7 -4 3 -4 -10z"/>
<path d="M9050 3096 c0 -8 4 -17 9 -20 5 -4 7 3 4 14 -6 23 -13 26 -13 6z"/>
<path d="M8809 3078 c-6 -27 -6 -59 0 -62 4 -3 7 -21 6 -41 -2 -28 0 -33 11
-24 10 8 14 8 14 1 0 -6 -4 -14 -10 -17 -13 -8 -13 -25 1 -25 5 0 8 4 4 9 -3
5 -1 12 4 15 15 10 10 58 -5 52 -8 -3 -14 -1 -14 4 0 6 6 10 13 10 7 1 5 6 -5
14 -18 13 -26 32 -10 22 4 -2 8 4 9 14 1 16 -15 41 -18 28z"/>
<path d="M8845 2911 c-3 -12 -10 -19 -14 -17 -4 3 -8 -1 -8 -8 0 -23 25 -13
32 12 7 30 -1 41 -10 13z"/>
<path d="M9025 2900 c-4 -6 -9 -8 -13 -6 -4 2 -8 -14 -8 -36 -1 -27 2 -35 8
-26 7 9 7 5 3 -12 -4 -14 -7 -37 -7 -52 0 -15 -4 -25 -9 -22 -5 3 -6 -2 -3
-10 4 -9 1 -16 -6 -16 -7 0 -10 -7 -6 -15 3 -8 0 -15 -7 -15 -8 0 -7 -3 2 -9
19 -12 23 -38 6 -38 -7 0 -11 7 -8 16 4 14 4 14 -6 1 -16 -23 -13 -30 12 -30
17 0 19 -2 7 -9 -8 -6 -18 -7 -22 -4 -10 5 -38 -15 -38 -27 0 -12 24 -6 53 13
14 9 24 24 23 34 -2 10 4 23 12 29 10 7 13 19 9 35 -9 34 -7 45 7 41 6 -2 8 0
4 4 -4 4 -2 14 4 23 10 13 10 14 -2 4 -21 -20 -32 -15 -20 7 7 12 16 18 23 13
9 -5 9 -3 1 8 -6 8 -10 24 -9 36 1 13 -3 19 -11 16 -9 -3 -11 2 -7 17 4 16 8
18 14 8 6 -9 8 -6 6 10 -1 25 -3 26 -12 12z m-8 -211 c2 -13 -1 -19 -9 -17
-13 5 -18 26 -10 41 6 12 15 0 19 -24z"/>
<path d="M8829 2858 c-7 -20 -8 -68 -1 -72 6 -3 8 9 7 27 -1 17 3 35 9 39 8 6
7 8 -1 8 -7 0 -13 -1 -14 -2z"/>
<path d="M8817 2769 c7 -7 15 -10 18 -7 3 3 -2 9 -12 12 -14 6 -15 5 -6 -5z"/>
<path d="M8815 2740 c-3 -5 -1 -10 4 -10 6 0 11 5 11 10 0 6 -2 10 -4 10 -3 0
-8 -4 -11 -10z"/>
<path d="M8805 2682 c-5 -4 -17 -16 -25 -26 -11 -15 -11 -18 -1 -12 10 7 12 3
6 -13 -4 -13 -2 -21 5 -21 6 0 9 4 6 9 -4 5 0 12 6 14 10 4 9 8 -2 16 -13 9
-8 15 11 13 3 -1 6 6 6 14 0 8 -1 14 -1 14 -1 0 -5 -4 -11 -8z"/>
<path d="M8755 2610 c-3 -5 -3 -10 2 -10 4 0 1 -5 -7 -10 -18 -12 -2 -12 25 0
18 8 18 9 2 9 -10 1 -15 6 -12 11 3 6 4 10 1 10 -3 0 -8 -4 -11 -10z"/>
<path d="M8733 2559 c-6 -6 -9 -18 -6 -25 3 -9 0 -13 -8 -11 -8 2 -11 2 -7 0
12 -7 -3 -32 -17 -27 -7 3 -16 1 -20 -5 -4 -7 0 -8 11 -4 12 4 15 3 10 -5 -15
-25 2 -10 31 26 18 22 28 44 24 50 -5 9 -10 9 -18 1z"/>
<path d="M8926 2543 c4 -23 3 -25 -6 -13 -10 13 -11 13 -6 -2 3 -12 0 -18 -9
-18 -8 0 -22 -16 -31 -35 -9 -19 -19 -33 -23 -30 -4 2 -8 -2 -8 -10 0 -11 4
-12 14 -4 10 9 13 8 13 -1 0 -10 3 -10 15 0 9 7 14 19 11 26 -3 7 3 15 12 19
15 6 15 8 -3 16 -17 8 -16 9 7 6 20 -3 25 0 20 11 -3 10 -1 13 6 8 8 -5 8 1 1
24 -14 38 -21 39 -13 3z m-41 -93 c3 -5 1 -10 -4 -10 -6 0 -11 5 -11 10 0 6 2
10 4 10 3 0 8 -4 11 -10z"/>
<path d="M8948 2548 c2 -10 6 -18 7 -18 1 0 5 8 7 18 3 11 0 19 -7 19 -7 0
-10 -8 -7 -19z"/>
<path d="M8670 2461 c0 -6 -8 -8 -17 -5 -11 4 -14 2 -8 -3 6 -4 12 -11 15 -15
3 -3 11 0 17 7 8 9 9 16 3 20 -6 3 -10 2 -10 -4z"/>
<path d="M8625 2430 c-3 -6 1 -7 9 -4 18 7 21 14 7 14 -6 0 -13 -4 -16 -10z"/>
<path d="M8595 2391 c2 -9 4 -19 4 -23 1 -7 41 28 41 35 0 2 -11 3 -24 3 -16
0 -23 -5 -21 -15z"/>
<path d="M8820 2402 c-42 -15 -69 -73 -46 -101 9 -11 7 -13 -11 -7 -12 4 -24
3 -26 -2 -12 -18 40 -5 60 15 22 22 22 23 3 33 -27 14 -25 30 3 29 20 0 21 -1
3 -8 -20 -7 -20 -8 0 -13 15 -4 26 4 44 31 13 20 16 30 8 23 -9 -7 -18 -9 -20
-4 -1 5 -10 7 -18 4z m15 -22 c3 -6 -1 -7 -9 -4 -18 7 -21 14 -7 14 6 0 13 -4
16 -10z m-45 -61 c0 -5 -4 -9 -8 -9 -5 0 -9 7 -9 15 0 8 4 12 9 9 4 -3 8 -9 8
-15z"/>
<path d="M8533 2353 c-18 -20 -31 -39 -28 -41 5 -5 39 32 56 61 15 25 8 21
-28 -20z"/>
<path d="M8556 2339 c-17 -13 -25 -27 -21 -36 6 -16 -11 -43 -27 -43 -5 0 -4
8 2 19 18 34 -21 18 -48 -20 -16 -22 -17 -26 -4 -11 20 22 21 22 31 4 12 -22
5 -33 -15 -25 -8 3 -14 0 -14 -6 0 -6 6 -11 14 -11 17 0 38 24 29 33 -3 4 -2
7 3 7 11 0 66 46 65 54 -3 19 0 27 7 22 4 -2 9 4 9 15 2 24 2 24 -31 -2z m4
-19 c-6 -11 -13 -20 -16 -20 -2 0 0 9 6 20 6 11 13 20 16 20 2 0 0 -9 -6 -20z
m-60 -40 c0 -5 -5 -10 -11 -10 -5 0 -7 5 -4 10 3 6 8 10 11 10 2 0 4 -4 4 -10z"/>
<path d="M8730 2255 c-7 -8 -16 -13 -20 -10 -4 2 -20 -9 -36 -26 -17 -18 -23
-29 -14 -27 9 2 14 -3 12 -12 -2 -8 13 2 33 22 20 20 36 40 35 44 -1 4 4 11
12 15 8 5 9 9 2 9 -6 0 -17 -7 -24 -15z m-35 -45 c3 -5 -1 -10 -10 -10 -9 0
-13 5 -10 10 3 6 8 10 10 10 2 0 7 -4 10 -10z"/>
<path d="M8410 2205 c-5 -7 -7 -15 -3 -19 4 -4 -3 -9 -16 -13 -12 -3 -20 -11
-17 -18 2 -7 -4 -21 -14 -30 -14 -13 -19 -13 -23 -3 -4 8 -6 6 -6 -5 -1 -10
-5 -16 -10 -12 -12 7 -43 -24 -36 -36 4 -5 12 -9 18 -8 9 0 8 2 -1 6 -6 2 -9
9 -6 14 3 6 12 5 22 -3 12 -10 14 -10 8 0 -4 6 -3 12 2 12 15 0 62 52 56 61
-3 5 2 6 10 3 9 -3 13 -11 9 -18 -3 -6 -2 -8 2 -3 8 7 10 17 17 64 1 6 8 8 17
5 10 -4 11 -7 3 -10 -7 -2 -10 -8 -6 -13 3 -5 0 -9 -6 -9 -6 0 -8 -4 -5 -10 4
-6 11 -5 19 3 8 6 12 15 9 20 -2 4 1 7 7 7 7 0 7 5 -2 13 -15 17 -35 17 -48 2z"/>
<path d="M8636 2168 c3 -4 1 -8 -4 -8 -5 0 -12 -8 -16 -17 -3 -10 -9 -25 -13
-33 -5 -11 -2 -11 10 2 10 9 17 20 17 24 0 4 7 15 15 24 13 14 13 17 0 17 -8
0 -12 -4 -9 -9z"/>
<path d="M7260 2162 c0 -5 7 -9 15 -9 8 0 12 4 9 9 -3 4 -9 8 -15 8 -5 0 -9
-4 -9 -8z"/>
<path d="M7236 2143 c-12 -12 -6 -31 12 -38 14 -5 15 -4 5 6 -18 18 -16 30 2
23 8 -4 15 -4 15 -1 0 8 -28 16 -34 10z"/>
<path d="M8568 2123 c-29 -34 -32 -46 -10 -32 12 7 23 21 25 31 6 22 4 23 -15
1z"/>
<path d="M7310 2119 c0 -5 5 -7 10 -4 6 3 10 8 10 11 0 2 -4 4 -10 4 -5 0 -10
-5 -10 -11z"/>
<path d="M7337 2116 c-4 -9 -1 -15 6 -13 7 1 11 -4 10 -10 -2 -7 1 -13 6 -13
5 0 12 6 15 13 4 6 4 2 2 -10 -4 -22 8 -29 38 -24 5 1 6 -7 3 -18 -7 -27 32
-44 58 -25 17 12 17 14 2 14 -9 0 -17 5 -17 11 0 6 -7 8 -16 5 -8 -3 -12 -2
-9 4 3 5 -4 14 -15 20 -11 6 -20 7 -21 3 0 -4 -4 2 -10 15 -5 13 -13 21 -18
17 -6 -3 -14 2 -19 11 -8 15 -10 15 -15 0z m123 -96 c0 -5 -7 -7 -15 -4 -8 4
-15 8 -15 10 0 2 7 4 15 4 8 0 15 -4 15 -10z"/>
<path d="M7249 2074 c-17 -20 -8 -25 20 -10 19 10 20 14 8 19 -9 3 -21 -1 -28
-9z"/>
<path d="M8231 2087 c2 -1 14 -10 26 -21 21 -17 21 -17 17 1 -3 10 -14 20 -26
20 -11 1 -19 1 -17 0z"/>
<path d="M8501 2065 c-15 -16 -18 -25 -10 -25 11 0 11 -2 -1 -9 -8 -6 -18 -7
-24 -4 -5 3 -6 1 -2 -5 10 -17 14 -15 43 16 15 15 23 20 18 12 -7 -13 -6 -13
6 -1 11 10 11 15 1 18 -6 3 -10 9 -6 14 9 16 0 9 -25 -16z"/>
<path d="M8225 2061 c-3 -5 -2 -12 3 -15 5 -3 9 1 9 9 0 17 -3 19 -12 6z"/>
<path d="M8185 2050 c-3 -6 1 -7 9 -4 18 7 21 14 7 14 -6 0 -13 -4 -16 -10z"/>
<path d="M8205 2031 c-3 -5 -2 -12 3 -15 5 -3 9 1 9 9 0 17 -3 19 -12 6z"/>
<path d="M8176 2022 c-3 -5 -19 -8 -36 -7 -16 1 -30 -1 -30 -5 0 -4 -13 -6
-28 -5 -19 1 -29 -3 -29 -11 0 -10 4 -11 14 -3 15 13 18 -1 3 -19 -7 -8 -7 -9
1 -3 6 5 18 7 27 4 10 -4 13 -2 8 5 -11 18 34 32 59 19 11 -5 17 -6 13 -2 -4
5 -3 14 3 22 6 7 9 13 6 13 -3 0 -8 -4 -11 -8z"/>
<path d="M7296 2006 c3 -9 11 -16 16 -16 13 0 5 23 -10 28 -7 2 -10 -2 -6 -12z"/>
<path d="M7322 1989 c-8 -12 -9 -18 -4 -15 6 3 12 2 14 -4 2 -6 9 -6 18 0 13
8 13 11 0 24 -14 14 -17 13 -28 -5z"/>
<path d="M7489 1998 c7 -10 18 -15 23 -12 5 3 16 -2 24 -12 10 -14 14 -15 12
-4 -2 10 4 14 17 12 18 -2 19 -2 2 8 -9 6 -22 8 -27 5 -6 -3 -10 -1 -10 6 0 8
-4 9 -13 0 -10 -8 -17 -7 -27 2 -12 10 -12 9 -1 -5z"/>
<path d="M8451 2004 c-1 -6 -11 -16 -23 -23 -23 -11 -23 -11 2 -5 31 8 33 10
27 26 -3 7 -6 8 -6 2z"/>
<path d="M8025 1990 c-3 -5 -13 -6 -23 -3 -14 5 -14 3 2 -9 18 -15 18 -15 -2
-20 -12 -3 -23 -1 -25 6 -3 8 -8 7 -19 -2 -10 -8 -19 -9 -22 -4 -3 6 6 13 20
16 15 4 24 9 22 12 -9 9 -59 -16 -53 -26 9 -14 -8 -12 -24 3 -11 10 -12 9 -6
-2 6 -11 4 -13 -10 -7 -15 5 -16 4 -5 -9 7 -9 16 -12 19 -8 8 11 35 10 43 -2
5 -6 8 -5 8 3 0 6 5 12 11 12 5 0 8 -4 4 -9 -3 -6 3 -9 14 -8 11 0 18 4 15 8
-2 4 6 9 18 11 14 2 22 11 23 26 2 24 -1 27 -10 12z"/>
<path d="M7590 1977 c0 -5 5 -17 11 -28 7 -15 16 -18 32 -13 12 4 40 7 62 7
l40 -1 -40 9 c-22 6 -51 10 -65 11 -14 1 -28 6 -32 12 -4 6 -8 7 -8 3z"/>
<path d="M7416 1961 c5 -11 2 -13 -14 -9 -15 4 -22 2 -22 -9 0 -9 -5 -11 -12
-7 -9 5 -9 2 1 -9 14 -18 26 -23 17 -8 -3 5 1 12 10 15 24 9 31 7 31 -9 0 -18
-13 -20 -20 -2 -4 9 -6 9 -6 -1 -1 -7 6 -15 14 -18 8 -4 13 -9 10 -14 -2 -4 3
-16 11 -26 9 -10 13 -13 9 -6 -3 6 -3 17 0 23 9 14 47 -20 38 -35 -3 -6 -3 -8
2 -4 4 4 15 2 24 -5 14 -10 14 -10 3 5 -8 10 -9 19 -3 22 5 4 12 -3 16 -14 3
-11 11 -20 16 -20 6 0 1 13 -10 29 -15 21 -27 28 -44 25 -12 -2 -16 -1 -8 2
10 5 4 11 -18 20 -18 8 -30 18 -27 22 3 5 -2 18 -10 28 -9 10 -12 13 -8 5z
m29 -60 c3 -5 2 -12 -3 -15 -5 -3 -9 1 -9 9 0 17 3 19 12 6z"/>
<path d="M7562 1958 c2 -6 10 -13 16 -14 7 -1 8 0 2 3 -5 2 -8 9 -4 14 3 5 0
9 -6 9 -7 0 -10 -5 -8 -12z"/>
<path d="M8351 1942 c-8 -15 -6 -18 11 -17 12 1 22 9 24 18 3 23 -23 22 -35
-1z"/>
<path d="M8318 1936 c-10 -7 -15 -15 -13 -18 3 -3 -1 -11 -10 -18 -13 -11 -14
-10 -9 5 6 15 4 16 -13 7 -11 -6 -24 -8 -28 -4 -5 4 -5 1 0 -7 6 -11 3 -13
-16 -8 -23 6 -23 5 -5 -8 11 -8 18 -15 15 -16 -38 -7 -49 -4 -44 10 4 11 0 9
-13 -5 -15 -15 -29 -20 -58 -18 -26 2 -34 1 -24 -6 8 -5 18 -6 24 -3 5 3 6 1
2 -5 -4 -7 -3 -12 3 -12 5 0 12 6 14 13 4 9 6 9 6 0 1 -9 8 -8 28 2 15 8 31
11 36 8 6 -3 21 7 35 23 13 16 22 22 19 13 -5 -15 -2 -15 23 -6 16 6 27 13 25
16 -3 2 2 15 10 28 18 26 17 27 -7 9z"/>
<path d="M7729 1929 c-6 -4 5 -6 24 -5 19 0 33 4 31 8 -5 8 -41 6 -55 -3z"/>
<path d="M7828 1928 c-9 -5 -6 -8 9 -8 12 0 24 4 27 8 7 11 -19 11 -36 0z"/>
<path d="M7560 1852 c0 -7 5 -12 10 -12 6 0 10 -8 11 -17 0 -11 3 -13 6 -6 3
9 10 10 23 3 11 -6 23 -9 27 -8 16 4 53 -14 48 -23 -8 -12 38 -7 47 6 5 6 8 6
8 -2 0 -6 9 -9 20 -6 11 3 20 10 20 15 0 6 -7 7 -16 4 -9 -4 -23 -1 -30 5 -11
9 -18 8 -29 -1 -11 -9 -15 -9 -15 -1 0 7 -4 9 -10 6 -5 -3 -10 -1 -10 5 0 8
-9 10 -25 6 -14 -4 -25 -2 -25 4 0 5 -8 10 -18 10 -10 0 -23 5 -30 12 -9 9
-12 9 -12 0z"/>
<path d="M8050 1839 c0 -4 -8 -6 -17 -5 -10 2 -27 -1 -38 -5 -17 -8 -16 -9 5
-5 23 5 24 4 6 -9 -17 -13 -15 -14 15 -13 19 0 44 7 57 14 14 9 22 10 22 4 0
-6 5 -8 10 -5 15 9 1 27 -16 21 -8 -3 -14 -2 -14 3 0 4 -7 8 -15 8 -8 0 -15
-4 -15 -8z m19 -20 c-17 -11 -39 -12 -39 -1 0 4 12 8 27 9 19 1 22 -1 12 -8z"/>
<path d="M7947 1823 c-10 -9 -9 -33 1 -33 4 0 8 9 8 20 0 23 0 22 -9 13z"/>
<path d="M7905 1810 c-3 -6 1 -7 9 -4 18 7 21 14 7 14 -6 0 -13 -4 -16 -10z"/>
<path d="M7786 1794 c-8 -22 -6 -23 22 -13 13 5 20 13 17 19 -10 15 -32 12
-39 -6z"/>
<path d="M7876 1795 c-3 -10 -12 -15 -21 -12 -9 4 -12 1 -8 -9 5 -13 8 -13 23
1 12 11 19 12 22 5 4 -13 38 -2 38 12 0 6 -8 7 -17 4 -9 -4 -20 -2 -23 4 -5 8
-9 6 -14 -5z"/>
</g>
</svg>
